<svg id="_003-receipt" data-name="003-receipt" xmlns="http://www.w3.org/2000/svg" width="14.146" height="17.245" viewBox="0 0 14.146 17.245">
  <path id="Path_38287" data-name="Path 38287" d="M56.967,1.158,55.956.147a.505.505,0,0,0-.714,0L54.589.8,53.936.147a.505.505,0,0,0-.714,0L52.568.8,51.915.147a.505.505,0,0,0-.714,0L50.547.8,49.894.147a.505.505,0,0,0-.714,0L48.526.8,47.873.147a.505.505,0,0,0-.714,0l-1.01,1.01A.505.505,0,0,0,46,1.515V15.224a2.023,2.023,0,0,0,2.021,2.021h10.1a2.023,2.023,0,0,0,2.021-2.021V13.674a.505.505,0,0,0-.505-.505H57.115V1.515a.505.505,0,0,0-.148-.357ZM48.021,16.234a1.012,1.012,0,0,1-1.01-1.01V1.724l.505-.505.653.653a.505.505,0,0,0,.714,0l.653-.653.653.653a.505.505,0,0,0,.714,0l.653-.653.653.653a.505.505,0,0,0,.714,0l.653-.653.653.653a.505.505,0,0,0,.714,0l.653-.653.505.505v13.5a2.009,2.009,0,0,0,.271,1.01Zm11.115-2.055v1.044a1.01,1.01,0,1,1-2.021,0V14.179Z" transform="translate(-46 0)" fill="#06b7fd"/>
  <path id="Path_38288" data-name="Path 38288" d="M136.505,122.01h4.042a.505.505,0,0,0,0-1.01h-4.042a.505.505,0,0,0,0,1.01Z" transform="translate(-132.969 -116.925)" fill="#06b7fd"/>
  <path id="Path_38289" data-name="Path 38289" d="M109.537,211h-3.031a.505.505,0,0,0,0,1.01h3.031a.505.505,0,1,0,0-1.01Z" transform="translate(-103.979 -203.893)" fill="#06b7fd"/>
  <path id="Path_38290" data-name="Path 38290" d="M257.516,211h-1.01a.505.505,0,0,0,0,1.01h1.01a.505.505,0,0,0,0-1.01Z" transform="translate(-248.927 -203.893)" fill="#06b7fd"/>
  <path id="Path_38291" data-name="Path 38291" d="M109.537,271h-3.031a.505.505,0,1,0,0,1.01h3.031a.505.505,0,1,0,0-1.01Z" transform="translate(-103.979 -261.872)" fill="#06b7fd"/>
  <path id="Path_38292" data-name="Path 38292" d="M257.516,271h-1.01a.505.505,0,0,0,0,1.01h1.01a.505.505,0,0,0,0-1.01Z" transform="translate(-248.927 -261.872)" fill="#06b7fd"/>
  <path id="Path_38293" data-name="Path 38293" d="M109.537,331h-3.031a.505.505,0,1,0,0,1.01h3.031a.505.505,0,1,0,0-1.01Z" transform="translate(-103.979 -319.851)" fill="#06b7fd"/>
  <path id="Path_38294" data-name="Path 38294" d="M257.516,331h-1.01a.505.505,0,0,0,0,1.01h1.01a.505.505,0,0,0,0-1.01Z" transform="translate(-248.927 -319.851)" fill="#06b7fd"/>
  <path id="Path_38295" data-name="Path 38295" d="M109.537,391h-3.031a.505.505,0,0,0,0,1.01h3.031a.505.505,0,0,0,0-1.01Z" transform="translate(-103.979 -377.83)" fill="#06b7fd"/>
  <path id="Path_38296" data-name="Path 38296" d="M257.516,391h-1.01a.505.505,0,0,0,0,1.01h1.01a.505.505,0,0,0,0-1.01Z" transform="translate(-248.927 -377.83)" fill="#06b7fd"/>
</svg>
