<svg xmlns="http://www.w3.org/2000/svg" width="16.392" height="21.3" viewBox="0 0 16.392 21.3">
  <g id="Group_2748" data-name="Group 2748" transform="translate(0.15 0.15)">
    <path id="Path_9730" data-name="Path 9730" d="M-2291.9,2006.518a4.787,4.787,0,0,1,.582.543q1.656,1.651,3.308,3.3a.39.39,0,0,1,.143.452.376.376,0,0,1-.4.215c-.909,0-1.818.006-2.728,0a1.4,1.4,0,0,1-1.386-1.322.365.365,0,0,1,.321-.424.351.351,0,0,1,.374.348.717.717,0,0,0,.813.7h1.8c0-.078-.057-.1-.092-.137q-1.449-1.452-2.9-2.9a.364.364,0,0,0-.286-.116q-5.045,0-10.089,0a.709.709,0,0,0-.792.8q0,9,0,18.005a.708.708,0,0,0,.793.8h13.1a.708.708,0,0,0,.795-.795q0-6.593,0-13.186a.744.744,0,0,1,.024-.284.328.328,0,0,1,.367-.23.322.322,0,0,1,.3.308,1.467,1.467,0,0,1,0,.164q0,6.614,0,13.227a1.391,1.391,0,0,1-1.173,1.474,1.718,1.718,0,0,1-.306.02h-13.125a1.4,1.4,0,0,1-1.487-1.487q0-9,0-18.006a1.389,1.389,0,0,1,1.163-1.484c.012,0,.021-.015.032-.023h10.336C-2292.232,2006.538-2292.06,2006.469-2291.9,2006.518Z" transform="translate(2303.927 -2006.48)" stroke="#000" stroke-width="0.3"/>
    <path id="Path_9731" data-name="Path 9731" d="M-2246.63,2172.964c0-.289-.124-.407-.415-.407q-1.374,0-2.748,0c-.3,0-.417.122-.418.426,0,.595,0,1.189,0,1.784,0,.133-.033.17-.168.17q-3.2-.007-6.4,0c-.151,0-.177-.049-.175-.185.009-.43.013-.861,0-1.291-.006-.173.042-.211.211-.209,1.654.006,3.308,0,4.962,0a1.273,1.273,0,0,0,.225-.008.34.34,0,0,0,.283-.37.335.335,0,0,0-.315-.318c-.054,0-.109,0-.164,0h-5.414c-.386,0-.485.1-.485.482q0,3.455,0,6.91c0,.378.106.48.491.48h10.089c.306,0,.436-.119.436-.411Q-2246.628,2176.492-2246.63,2172.964Zm-10.319,2.839c0-.123.017-.175.162-.174q3.205.008,6.411,0c.134,0,.17.035.168.168-.008.464-.009.928,0,1.393,0,.139-.043.166-.172.166-1.072,0-2.144,0-3.216,0s-2.117,0-3.176,0c-.145,0-.181-.04-.178-.181C-2256.941,2176.719-2256.943,2176.261-2256.95,2175.8Zm9.4,3.932q-1.156-.007-2.312-.006h-2.281c-1.524,0-3.049,0-4.573.006-.206,0-.246-.059-.239-.249.015-.423.008-.848,0-1.271,0-.111.008-.167.149-.167q3.219.007,6.439,0c.135,0,.158.046.152.164-.009.177-.005.355,0,.533a.354.354,0,0,0,.353.371h0a.355.355,0,0,0,.343-.363c.006-.185.008-.369,0-.553-.005-.112.022-.155.143-.15.239.01.479.006.718,0s.414-.148.409-.359-.159-.336-.4-.338-.492,0-.738,0c-.1,0-.129-.025-.128-.125q.007-.738,0-1.477c0-.1.032-.126.128-.124.246.006.492,0,.738,0a.363.363,0,0,0,.4-.342c.006-.21-.156-.353-.409-.355s-.479,0-.718,0c-.1,0-.146-.012-.144-.13.007-.479.005-.957,0-1.436,0-.087.02-.117.113-.117.656,0,1.313,0,1.969,0,.079,0,.114.023.1.1a.9.9,0,0,0,0,.1c0,2.016,0,4.033,0,6.049C-2247.325,2179.685-2247.36,2179.737-2247.546,2179.736Z" transform="translate(2260.184 -2163.452)" stroke="#000" stroke-width="0.3"/>
    <path id="Path_9732" data-name="Path 9732" d="M-2254.821,2121.521q1.168,0,2.335,0c.282,0,.435.124.434.345s-.158.353-.435.354q-2.345,0-4.69,0c-.265,0-.416-.128-.422-.343s.141-.355.4-.355C-2256.4,2121.519-2255.612,2121.521-2254.821,2121.521Z" transform="translate(2260.138 -2115.214)" stroke="#000" stroke-width="0.3"/>
    <path id="Path_9733" data-name="Path 9733" d="M-2255.7,2082.184c-.491,0-.983,0-1.475,0-.272,0-.417-.121-.422-.338s.149-.361.423-.361q1.474,0,2.949,0c.274,0,.428.137.422.362s-.152.336-.423.337C-2254.714,2082.186-2255.206,2082.184-2255.7,2082.184Z" transform="translate(2260.134 -2077.371)" stroke="#000" stroke-width="0.3"/>
  </g>
</svg>
