<svg id="Love" xmlns="http://www.w3.org/2000/svg" width="40" height="40" viewBox="0 0 40 40">
  <g id="Icon">
    <g id="Background">
      <circle id="Background-2" data-name="Background" cx="20" cy="20" r="20" fill="none"/>
      <circle id="Background-3" data-name="Background" cx="20" cy="20" r="20" fill="rgba(255,255,255,0.3)" opacity="0.37"/>
    </g>
    <g id="chat_2_" data-name="chat (2)" transform="translate(10.185 8.557)">
      <g id="Group_73869" data-name="Group 73869" transform="translate(0 5.948)">
        <g id="Group_73868" data-name="Group 73868" transform="translate(0)">
          <path id="Path_20240" data-name="Path 20240" d="M8.09,155C3.65,155,0,158.051,0,161.8a6.338,6.338,0,0,0,1.649,4.206L.142,167.732a.575.575,0,0,0,.433.954h8.09c3.278,0,7.515-2.823,7.515-6.882C16.179,158.051,12.529,155,8.09,155ZM4.6,162.858a1.15,1.15,0,1,1,1.15-1.15A1.152,1.152,0,0,1,4.6,162.858Zm3.489,0a1.15,1.15,0,1,1,1.15-1.15A1.152,1.152,0,0,1,8.09,162.858Zm3.489,0a1.15,1.15,0,1,1,1.15-1.15A1.152,1.152,0,0,1,11.579,162.858Z" transform="translate(0 -154.998)" fill="#fff"/>
        </g>
      </g>
      <g id="Group_73871" data-name="Group 73871" transform="translate(4.7 0.006)">
        <g id="Group_73870" data-name="Group 73870" transform="translate(0 0)">
          <path id="Path_20241" data-name="Path 20241" d="M137.374,11.708l-1.354-1.58a5.713,5.713,0,0,0,1.493-3.8c0-3.488-3.354-6.326-7.476-6.326-3.728,0-6.895,2.323-7.454,5.347a10.641,10.641,0,0,1,3.39-.554c5.036,0,9.174,3.518,9.234,7.86h1.731A.576.576,0,0,0,137.374,11.708Z" transform="translate(-122.583 -0.006)" fill="#fff"/>
        </g>
      </g>
    </g>
  </g>
</svg>
