<svg xmlns="http://www.w3.org/2000/svg" width="16.555" height="16.286" viewBox="0 0 16.555 16.286">
  <path id="edit-text" d="M3.953,14.852h.085l2.256-.208a1.36,1.36,0,0,0,.832-.393l8.516-8.516a2.1,2.1,0,0,0,0-2.988L15.095,2.2a2.168,2.168,0,0,0-3,0L11.014,3.286h0L3.591,10.709a1.311,1.311,0,0,0-.385.832L3,13.8a.99.99,0,0,0,.277.77.95.95,0,0,0,.678.285ZM13.6,2.732a.932.932,0,0,1,.678.285l.547.547a.95.95,0,0,1,.285.678.937.937,0,0,1-.285.678l-.678.678-1.9-1.9.678-.678a.964.964,0,0,1,.678-.285ZM4.353,11.649a.164.164,0,0,1,.054-.116l7.015-7.023,1.9,1.9L6.309,13.427a.322.322,0,0,1-.116.054l-2.025.185.185-2.025Zm13.452,5.66a.582.582,0,0,1-.578.578H1.828a.578.578,0,0,1,0-1.155h15.4A.582.582,0,0,1,17.805,17.308Z" transform="translate(-1.25 -1.6)" fill="#06b7fd"/>
</svg>
