<svg xmlns="http://www.w3.org/2000/svg" width="20.454" height="20.469" viewBox="0 0 20.454 20.469">
  <g id="like" transform="translate(-0.194 0)">
    <g id="Group_73956" data-name="Group 73956" transform="translate(0.194 8.993)">
      <g id="Group_73955" data-name="Group 73955">
        <path id="Path_38309" data-name="Path 38309" d="M.8,224.948a.606.606,0,0,0-.606.606v8.894a.606.606,0,0,0,.606.606H4.448v-10.1Z" transform="translate(-0.194 -224.948)" fill="#fff"/>
      </g>
    </g>
    <g id="Group_73958" data-name="Group 73958" transform="translate(5.659 0)">
      <g id="Group_73957" data-name="Group 73957">
        <path id="Path_38310" data-name="Path 38310" d="M151.875,12.337a2.112,2.112,0,0,0-1.029-1.812,2.11,2.11,0,0,0-1.737-3.31h-4.456c.137-.619.323-1.548.453-2.52.338-2.53.107-3.933-.728-4.415A1.825,1.825,0,0,0,142.8.108,2.078,2.078,0,0,0,141.6,1.5l-1.171,3.066c-.594,1.466-2.412,3.006-3.54,3.857V19.366a19.574,19.574,0,0,0,6.5,1.1h4.855a2.11,2.11,0,0,0,1.794-3.222,2.109,2.109,0,0,0,.815-3.1A2.112,2.112,0,0,0,151.875,12.337Z" transform="translate(-136.886 0)" fill="#fff"/>
      </g>
    </g>
  </g>
</svg>
