<svg id="view" xmlns="http://www.w3.org/2000/svg" width="10.555" height="6.727" viewBox="0 0 10.555 6.727">
  <g id="Group_15682" data-name="Group 15682" transform="translate(0 0)">
    <g id="Group_15681" data-name="Group 15681">
      <path id="Path_19985" data-name="Path 19985" d="M10.488,95.993c-.094-.129-2.341-3.158-5.211-3.158S.161,95.864.067,95.993a.348.348,0,0,0,0,.411c.094.129,2.341,3.158,5.211,3.158s5.116-3.029,5.211-3.158A.348.348,0,0,0,10.488,95.993ZM5.278,98.867c-2.114,0-3.944-2.011-4.486-2.668.541-.658,2.368-2.668,4.486-2.668s3.944,2.01,4.486,2.668C9.223,96.857,7.4,98.867,5.278,98.867Z" transform="translate(0 -92.835)" fill="#fff"/>
    </g>
  </g>
  <g id="Group_15684" data-name="Group 15684" transform="translate(3.19 1.276)">
    <g id="Group_15683" data-name="Group 15683" transform="translate(0 0)">
      <path id="Path_19986" data-name="Path 19986" d="M156.81,154.725a2.088,2.088,0,1,0,2.088,2.088A2.09,2.09,0,0,0,156.81,154.725Zm0,3.48a1.392,1.392,0,1,1,1.392-1.392A1.393,1.393,0,0,1,156.81,158.2Z" transform="translate(-154.722 -154.725)" fill="#fff"/>
    </g>
  </g>
</svg>
