<svg xmlns="http://www.w3.org/2000/svg" width="18" height="24" viewBox="0 0 18 24">
  <g id="Group_27197" data-name="Group 27197" transform="translate(-64 -871)">
    <g id="Group_27195" data-name="Group 27195" transform="translate(-1 -54)">
      <g id="Group_27194" data-name="Group 27194" transform="translate(-311 58)">
        <g id="user_2_" data-name="user (2)" transform="translate(373 867)">
          <path id="Path_20073" data-name="Path 20073" d="M12,12A6,6,0,1,0,6,6a6,6,0,0,0,6,6ZM12,2A4,4,0,1,1,8,6,4,4,0,0,1,12,2Z" transform="translate(0 0)" fill="#d3d3d3"/>
          <path id="Path_20074" data-name="Path 20074" d="M12,14a9.01,9.01,0,0,0-9,9,1,1,0,1,0,2,0,7,7,0,0,1,14,0,1,1,0,1,0,2,0A9.01,9.01,0,0,0,12,14Z" transform="translate(0 0)" fill="#d3d3d3"/>
        </g>
      </g>
    </g>
  </g>
</svg>
