<svg id="Layer_2" data-name="Layer 2" xmlns="http://www.w3.org/2000/svg" xmlns:xlink="http://www.w3.org/1999/xlink" width="39.012" height="39.012" viewBox="0 0 39.012 39.012">
  <defs>
    <linearGradient id="linear-gradient" y1="0.5" x2="1" y2="0.5" gradientUnits="objectBoundingBox">
      <stop offset="0" stop-color="#26ab5a"/>
      <stop offset="1" stop-color="#7ce35d"/>
    </linearGradient>
    <linearGradient id="linear-gradient-3" x1="1.138" y1="-1.837" x2="-0.312" y2="3.474" gradientUnits="objectBoundingBox">
      <stop offset="0" stop-color="#fff"/>
      <stop offset="0.99" stop-color="#bdffd1"/>
    </linearGradient>
    <linearGradient id="linear-gradient-4" x1="2.483" y1="-3.131" x2="-0.417" y2="2.18" xlink:href="#linear-gradient-3"/>
  </defs>
  <path id="Path_20162" data-name="Path 20162" d="M31.506,10H14a4,4,0,0,0-4,4v12.5a4.006,4.006,0,0,0,4,4h7.835l6.267,4.7a1.5,1.5,0,0,0,2.4-1.2v-3.5h1a4.006,4.006,0,0,0,4-4V14A4,4,0,0,0,31.506,10Z" transform="translate(3.504 3.504)" fill="url(#linear-gradient)"/>
  <path id="Path_20163" data-name="Path 20163" d="M26.508,1H5.5A4.5,4.5,0,0,0,1,5.5v15a4.5,4.5,0,0,0,4.5,4.5H7v4.5a1.5,1.5,0,0,0,2.4,1.2l7.5-5.631,9.6-.071a4.5,4.5,0,0,0,4.5-4.5V5.5a4.5,4.5,0,0,0-4.5-4.5Z" transform="translate(-1 -1)" fill="url(#linear-gradient)"/>
  <path id="Path_20164" data-name="Path 20164" d="M6,6H21V9H6Z" transform="translate(1.502 1.502)" fill="url(#linear-gradient-3)"/>
  <path id="Path_20165" data-name="Path 20165" d="M6,10h7.5v3H6Z" transform="translate(1.502 3.504)" fill="url(#linear-gradient-4)"/>
</svg>
