<svg xmlns="http://www.w3.org/2000/svg" xmlns:xlink="http://www.w3.org/1999/xlink" width="32.168" height="30.816" viewBox="0 0 32.168 30.816">
  <defs>
    <linearGradient id="linear-gradient" x1="0.5" x2="0.5" y2="1" gradientUnits="objectBoundingBox">
      <stop offset="0" stop-color="#ffe61c"/>
      <stop offset="1" stop-color="#ffa929"/>
    </linearGradient>
  </defs>
  <path id="star_4_" data-name="star (4)" d="M18.085,29.014l-7.54,3.963a2.214,2.214,0,0,1-3.213-2.334l1.44-8.4L2.672,16.3A2.215,2.215,0,0,1,3.9,12.52L12.329,11.3l3.77-7.64a2.214,2.214,0,0,1,3.971,0l3.77,7.64L32.27,12.52A2.215,2.215,0,0,1,33.5,16.3l-6.1,5.947,1.44,8.4a2.214,2.214,0,0,1-3.213,2.334Z" transform="translate(-2 -2.42)" fill="url(#linear-gradient)"/>
</svg>
