<svg xmlns="http://www.w3.org/2000/svg" width="36.888" height="36.888" viewBox="0 0 36.888 36.888">
  <g id="pakistan_1_" data-name="pakistan (1)" transform="translate(0.85 0.85)">
    <g id="Group_14590" data-name="Group 14590">
      <path id="Path_19750" data-name="Path 19750" d="M49.594,32A17.594,17.594,0,1,1,32,49.594,17.594,17.594,0,0,1,49.594,32Z" transform="translate(-32 -32)" fill="#077e57" stroke="#fff" stroke-width="1.7" fill-rule="evenodd"/>
      <path id="Path_19751" data-name="Path 19751" d="M40.8,61.969v30.48a17.6,17.6,0,0,1,0-30.48Z" transform="translate(-32 -59.615)" fill="#fbfbfb" fill-rule="evenodd"/>
      <path id="Path_19752" data-name="Path 19752" d="M216.053,168.681a5.8,5.8,0,0,0-1.646.642,5.391,5.391,0,1,0,5.387,9.331,5.792,5.792,0,0,0,1.379-1.1,7.133,7.133,0,0,1-3.13,3.671,6.739,6.739,0,1,1-6.734-11.663A7.133,7.133,0,0,1,216.053,168.681Z" transform="translate(-193.938 -157.858)" fill="#fbfbfb" fill-rule="evenodd"/>
    </g>
    <path id="Path_19753" data-name="Path 19753" d="M345.883,180.291l1.357,1.222,1.582-.913-.743,1.668,1.357,1.222-1.816-.191-.743,1.668-.38-1.786-1.816-.191,1.581-.913Z" transform="translate(-320.122 -168.644)" fill="#fbfbfb"/>
  </g>
</svg>
