<svg width="20" height="20" viewBox="0 0 20 20" fill="none" xmlns="http://www.w3.org/2000/svg">
    <rect width="20" height="20" rx="10" fill="#1778F2"/>
    <path d="M8.73373 14.9968C8.73373 14.9548 8.72906 14.9161 8.72906 14.8701V10.4395H7.25V8.66442H8.72906V8.53855C8.72906 8.07379 8.71972 7.60822 8.7384 7.14346C8.76098 6.58349 8.92056 6.07031 9.302 5.65235C9.58766 5.34642 9.95831 5.14051 10.3623 5.06333C10.6931 5.00306 11.0299 4.98572 11.3649 5.01169C11.6381 5.02218 11.9098 5.04719 12.1823 5.06575C12.2033 5.06575 12.2243 5.07382 12.25 5.07866V6.66337H12.1519C11.8164 6.66821 11.4801 6.66337 11.1454 6.68112C10.7491 6.7029 10.5226 6.93044 10.5086 7.34356C10.4915 7.77201 10.5032 8.20208 10.5024 8.63456C10.5047 8.64435 10.5081 8.65383 10.5125 8.6628H12.1947C12.1169 9.2607 12.0476 9.84487 11.9744 10.4379H10.5078C10.5078 10.4759 10.5 10.5033 10.5 10.5315C10.5 11.9984 10.5 13.4653 10.5 14.9322C10.5 14.9548 10.5 14.9774 10.5047 15L8.73373 14.9968Z" fill="white"/>
</svg>
