<svg xmlns="http://www.w3.org/2000/svg" viewBox="0 0 128.31 24.07"><rect x="103.35" y="0.3" width="5.73" height="8.85" style="fill:#1f252b"/><rect x="106.39" y="-6.79" width="5.77" height="37.66" transform="translate(121.31 -97.24) rotate(90)" style="fill:#1f252b"/><rect x="85.17" y="12.77" width="5.77" height="16.24" transform="translate(108.94 -67.17) rotate(90)" style="fill:#1f252b"/><rect x="85.17" y="-4.93" width="5.77" height="16.24" transform="translate(91.24 -84.87) rotate(90)" style="fill:#1f252b"/><rect x="122.37" y="0.3" width="5.73" height="8.85" style="fill:#1f252b"/><rect x="112.86" y="0.3" width="5.73" height="8.85" style="fill:#1f252b"/><rect x="90.45" y="0.3" width="5.73" height="8.85" style="fill:#1f252b"/><rect x="90.45" y="14.92" width="5.73" height="8.85" style="fill:#1f252b"/><rect x="79.93" y="0.3" width="5.73" height="8.85" style="fill:#1f252b"/><polygon points="88.3 9.15 89.47 14.92 79.94 14.92 79.94 9.15 88.3 9.15" style="fill:#1f252b"/><rect x="61.39" y="9.23" width="5.77" height="23.31" transform="translate(85.16 -43.39) rotate(90)" style="fill:#1f252b"/><rect x="52.6" y="0.32" width="5.77" height="5.73" transform="translate(58.67 -52.3) rotate(90)" style="fill:#fda625"/><rect x="52.6" y="7.57" width="5.77" height="5.73" transform="translate(65.92 -45.05) rotate(90)" style="fill:#fda625"/><rect x="65.77" y="4.76" width="5.77" height="14.56" transform="translate(80.69 -56.62) rotate(90)" style="fill:#1f252b"/><rect x="65.77" y="-4.09" width="5.77" height="14.56" transform="translate(71.84 -65.47) rotate(90)" style="fill:#1f252b"/><rect x="70.2" y="0.3" width="5.73" height="8.85" style="fill:#1f252b"/><rect x="70.2" y="14.92" width="5.73" height="8.85" style="fill:#1f252b"/><rect x="61.37" y="0.29" width="5.73" height="8.85" style="fill:#1f252b"/><rect x="52.62" y="14.92" width="5.73" height="8.85" style="fill:#1f252b"/><rect x="2.53" y="18" width="46.08" height="5.77" style="fill:#fda625"/><rect x="32.37" y="9.15" width="16.24" height="5.77" style="fill:#fda625"/><rect x="42.88" y="0.3" width="5.73" height="8.85" style="fill:#fda625"/><rect x="42.88" y="14.92" width="5.73" height="8.85" style="fill:#fda625"/><rect x="32.37" y="0.3" width="5.73" height="8.85" style="fill:#fda625"/><polygon points="28.72 0.3 28.72 6.07 1.62 6.07 0.44 0.3 28.72 0.3" style="fill:#fda625"/><rect x="2.53" y="0.3" width="5.73" height="14.62" style="fill:#fda625"/><rect x="12.76" y="0.3" width="5.73" height="14.62" style="fill:#fda625"/><rect x="22.99" y="0.3" width="5.73" height="14.62" style="fill:#fda625"/></svg>