<svg xmlns="http://www.w3.org/2000/svg" width="51.7" height="51.7" viewBox="0 0 51.7 51.7">
  <g id="saudi-arabia_2_" data-name="saudi-arabia (2)" transform="translate(0.85 0.85)">
    <circle id="Ellipse_907" data-name="Ellipse 907" cx="25" cy="25" r="25" transform="translate(0)" fill="#3d9635" stroke="#fff" stroke-width="1.7"/>
    <g id="Group_14591" data-name="Group 14591" transform="translate(7.095 11.944)">
      <path id="Path_19754" data-name="Path 19754" d="M4.723,10.043c-.083,1.292-.189,3.578.781,3.809,1.18.122.53-2.252.955-2.683.081-.209.231-.209.242.055v2.022a.937.937,0,0,0,.673.972c.312-.023.516-.013.636.331q.078,1.739.145,3.478s.72.242.755-1.955a23.021,23.021,0,0,1-.067-2.616c0-.244.281-.266.481-.133.313.244.447.541.925.42.731-.233,1.166-.625,1.178-1.259a6.083,6.083,0,0,0-.328-1.8c.031-.111-.145-.386-.108-.5.13.233.327.209.37,0a1.814,1.814,0,0,0-.625-1.094c-.259-.255-.642-.2-.781.342a3.192,3.192,0,0,0,.6,1.931,2.13,2.13,0,0,1,.148.972.438.438,0,0,1-.6-.133s-.587-.5-.587-.6a2.636,2.636,0,0,0-.048-1.563,2.125,2.125,0,0,0-.381-.834c-.144-.187-.341-.187-.434,0A3.255,3.255,0,0,0,8.7,11.269c.13.441.339.717.244.717-.081.255-.247.188-.366-.1A7.9,7.9,0,0,1,8.38,10c-.055-.5-.114-1.562-.4-1.833-.177-.266-.442-.133-.536.122a10.6,10.6,0,0,0,.03,1.434,17.206,17.206,0,0,1,.361,2.319c.025,1.094-.559.469-.534-.077a5.572,5.572,0,0,0-.02-2.087c-.1-.286-.208-.353-.444-.3-.187-.023-.661.562-.794,1.534a8.739,8.739,0,0,0-.156.95c-.069.5-.361.85-.566-.078-.181-.673-.287-2.33-.584-1.944" transform="translate(-4.466 -7.432)" fill="#fff"/>
      <path id="Path_19755" data-name="Path 19755" d="M7.869,12.906c-1.042.586-2.055,1.116-3.08,1.667a3.266,3.266,0,0,1,2.438-2.219c.625.022.469.277.642.552" transform="translate(-4.401 -4.994)" fill="#fff"/>
      <path id="Path_19756" data-name="Path 19756" d="M11.262,8.031a.878.878,0,0,0-.2.066.655.655,0,0,0-.413.806c.3,2.031.486,3.578.781,5.6.052.244-.13.553-.356.531-.389-.3-.486-.906-1.148-.873a1.381,1.381,0,0,0-1.094,1.159,3.314,3.314,0,0,0,0,1.325.9.9,0,0,0,1.094.312c.291-.133.533-.469.636-.386.064.133-.009,1.192-1.372,2-.842.419-1.508.53-1.875-.244-.219-.484.017-2.319-.528-1.9-1.622,4.7,3.8,5.366,4.4.2.039-.144.156-.288.245-.253.041.022.069.077.078.188-.125,4.67-4.189,4.98-4.878,3.522a4.908,4.908,0,0,1-.244-1.58.9.9,0,0,0-.166-.519c-.166-.131-.386.233-.436.863a6.3,6.3,0,0,0-.048,1.125c.216,3.711,5.45,2.12,6.3-.938a11.739,11.739,0,0,0,.141-2.922h.017l.012-.011c.53.625,1.25.077,1.414-.133A.225.225,0,0,1,14,15.923a.8.8,0,0,0,1.262-.4,15.611,15.611,0,0,0,.177-1.756,1.406,1.406,0,0,0-.564.264.181.181,0,0,0-.042.089c-.02.156-.042.331-.067.5a.447.447,0,0,1-.011.044.12.12,0,0,1-.052.045.17.17,0,0,1-.266-.133c-.123-.625-.639-.73-.953.264-.216.2-.594.233-.636-.044.055-.673-.189-.763-.667-.453-.156-1.325-.312-2.583-.469-3.906.2,0,.381.166.567-.089a7.969,7.969,0,0,0-.847-2.239.525.525,0,0,0-.038-.045.019.019,0,0,1-.016-.011h-.019c-.009-.011-.025-.011-.027-.022-.025,0-.047-.011-.069,0M9.805,15.285a.272.272,0,0,1,.287.2.389.389,0,0,1-.059.353c-.042.078-.18.045-.283.045a.256.256,0,0,1-.255-.144c-.038-.122.066-.244.116-.342s.009-.022.017-.033a.369.369,0,0,1,.177-.078" transform="translate(-3.867 -7.429)" fill="#fff"/>
      <path id="Path_19757" data-name="Path 19757" d="M12.465,7.958a.975.975,0,0,0-.366.111.87.87,0,0,0-.116,1.048c.206.1.413.344.272.469-.578.7-2.1,1.875-2.172,2.087V11.7H10.1a3.559,3.559,0,0,0,1.131.011V11.7A16.875,16.875,0,0,0,13.1,9.575c-.077-.077-.156-.133-.233-.209a.156.156,0,0,1,0-.244.758.758,0,0,0,.064-1.059.844.844,0,0,0-.469-.1m-.072.608c.1-.011.206.1.263.231s.03.288-.064.32-.223-.077-.286-.22-.028-.3.07-.32c0,0,0-.011.017-.011" transform="translate(-1.422 -7.467)" fill="#fff"/>
      <path id="Path_19758" data-name="Path 19758" d="M5.037,14.905a3.806,3.806,0,0,0-.312,3.047.606.606,0,0,0,.655.242c.361-.177.523-1,.434-1.3-.12-.222-.216-.255-.339-.067-.252.575-.359.177-.383-.156a8.577,8.577,0,0,1,.069-1.634c.064-.452,0-.32-.127-.131" transform="translate(-4.54 -3.658)" fill="#fff"/>
      <path id="Path_19759" data-name="Path 19759" d="M22.748,17.165c-.556-1.359-1.331-2.7-1.577-3.2s-2.106-3.544-2.381-3.9c-.606-.806.981.342-.2-1.27-.447-.431-.469-.453-.855-.806-.181-.156-.648-.419-.723.022a2.792,2.792,0,0,0,.039.961,3.41,3.41,0,0,0,.469.817,61.863,61.863,0,0,1,5.172,9.341c.256-.131.2-1.733.05-1.964" transform="translate(2.46 -7.574)" fill="#fff"/>
      <path id="Path_19760" data-name="Path 19760" d="M19.113,21.582c-.114.133.267.739.766.728.827-.1,1.563-.625,2.231-2.009a3.848,3.848,0,0,0,.511-1.545,38.031,38.031,0,0,0-.558-7.812,1.381,1.381,0,0,1,.02-.541c.053-.077.236,0,.331-.177.145-.166-.373-1.513-.669-2.031-.1-.233-.142-.386-.313.022a3.258,3.258,0,0,0-.291,1.48c.4,3.07.516,5.781.781,8.844a1.352,1.352,0,0,1-.194.906,7.75,7.75,0,0,1-2.611,2.142" transform="translate(3.645 -7.464)" fill="#fff"/>
      <path id="Path_19761" data-name="Path 19761" d="M25.349,24.495c-.6.387-.6.839-.113.85a2.852,2.852,0,0,0,2.484-1.336,4.856,4.856,0,0,0,.4-1.719,45.568,45.568,0,0,0-.45-8.447,4.19,4.19,0,0,1-.083-.8c.056-.144.323.022.414-.156.147-.156-.692-1.38-.992-1.9-.1-.233-.138-.388-.312.033a2.617,2.617,0,0,0-.172,1.469,91.111,91.111,0,0,1,.831,9.541,3.075,3.075,0,0,1-.166.781,5.73,5.73,0,0,1-.811,1.072c-.275.22-.85.441-1.036.606" transform="translate(6.903 -5.89)" fill="#fff"/>
      <path id="Path_19762" data-name="Path 19762" d="M27.238,18.63c-.009-.781.02-1.458-.009-2.044s-.263-2.772-.336-3.234-.166-1.181-.278-1.745a5.313,5.313,0,0,1-.1-.994c.044-.156.236.011.322-.177a6.65,6.65,0,0,0-.781-2.452c-.108-.231-.312-.156-.561.222-.238.242-.156.794-.061,1.325a54.732,54.732,0,0,1,.944,10.478c-.034.277.873-.85.864-1.38" transform="translate(7.157 -7.526)" fill="#fff"/>
      <path id="Path_19763" data-name="Path 19763" d="M24.259,12.96c-.377-.011-1.161-.817-1.389-1.291a1.011,1.011,0,0,1,.044-.7c.139-.1.353-.22.511-.1,0,0,.166.253.134.288.2.109.292.044.313-.056.012-.156-.064-.253-.064-.43.086-.5.584-.564.781-.255a1.966,1.966,0,0,1,.209.861c0,.144-.2-.022-.313.011s-.142.178-.156.313c-.025.364-.059.928-.064,1.358" transform="translate(5.746 -6.187)" fill="#fff"/>
      <path id="Path_19764" data-name="Path 19764" d="M19.964,19.5c.106-1.072-.034-3.236-.044-3.864-.034-1.48-.255-4.341-.353-4.816-.119-.9.327.1.262-.43a6.009,6.009,0,0,0-1.108-2.33c-.166-.266-.156-.32-.422.066a3.1,3.1,0,0,0,.034,1.811,37.148,37.148,0,0,1,.7,5.256,52.694,52.694,0,0,1,.042,5.587c.283,0,.734-.519.891-1.281" transform="translate(3.132 -7.527)" fill="#fff"/>
      <path id="Path_19765" data-name="Path 19765" d="M29.625,17.783c-.655-1.25-1.655-2.706-1.919-3.2s-2.52-4.206-2.8-4.531c-.825-.961.378-.156-.156-.917a6.944,6.944,0,0,0-.975-1.059c-.192-.133-.312-.409-.375.044a10.157,10.157,0,0,0-.03,1.214,1.627,1.627,0,0,0,.328.752,70.661,70.661,0,0,1,5.917,9.661c.25-.131.164-1.733.009-1.953" transform="translate(6.047 -7.519)" fill="#fff"/>
      <path id="Path_19766" data-name="Path 19766" d="M30.4,21.783a.647.647,0,0,0-.186,1.148c-6.164,0-15.625-.111-17.645-.111-1.139,0-4.725-.156-4.792-.156a3.48,3.48,0,0,0,3.339,1.545c2.741,0,15.42-.033,19.025-.033a1.538,1.538,0,0,0,.228,1.48l.014.011a.02.02,0,0,0,.022.011h.011c.241.067.345-.133.43-.264a23.124,23.124,0,0,0,2.766-.011c.136.22.273.43.528.4.45-.111.8-.166.819-1.192,0,0-.047-1.745-1.069-1.634-.242.033-.919.111-.919.111-.781-.1-1.364-.111-2.245-.156.083-.111.223-.586.048-.752a.286.286,0,0,0-.211-.066h-.017a.072.072,0,0,1-.019-.022v-.011a2.081,2.081,0,0,1-.1-.3h-.02m.419,2.5c.894.044,1.737.011,2.641.055a.4.4,0,0,1-.023.508c0,.011-.011.011-.013.011h-.025c-.292-.011-.459-.011-.752-.022,0-.022-.009-.033-.009-.055-.072-.233-.569-.209-.691-.022v.055a.061.061,0,0,0,0,.033,5.667,5.667,0,0,1-1.148-.044c-.111-.156-.1-.442.037-.519" transform="translate(-2.719 0.308)" fill="#fff"/>
      <path id="Path_19767" data-name="Path 19767" d="M12.346,9.188c-.6,1.92.347,4.041,1,3.842.469.209.77-.806.967-1.911.134-.312.233-.342.3-.187-.02,1.48.092,1.811.43,2.253a.986.986,0,0,0,1.422.022c.048-.044.586-.652.586-.652a.32.32,0,0,1,.489-.022c.173.177.156.5.534.706a1.058,1.058,0,0,0,1.169-.275c.216-.409.262-.553.361-.708.156-.231.416-.131.416-.055-.023.133-.17.255-.075.486.188.156.23.055.339.022.381-.209.669-1.138.669-1.138.012-.353-.156-.32-.275-.242-.142.1-.156.133-.3.231-.184.022-.547.166-.722-.144-.186-.375-.186-.9-.33-1.28,0-.022-.239-.586-.014-.625.111.022.352.1.392-.133.122-.22-.255-.861-.509-1.17a.517.517,0,0,0-.83-.033,1.108,1.108,0,0,0-.222.684,1.178,1.178,0,0,0,.2.928,3.08,3.08,0,0,1,.469,1.888.689.689,0,0,1-.609.353c-.156-.044-.422-.122-.562-1.27a9.081,9.081,0,0,0-.3-2.683c-.12-.353-.2-.7-.5-.087A1.5,1.5,0,0,0,16.667,9.3a4.342,4.342,0,0,1,.188,2.042,3.682,3.682,0,0,1-.35.562.536.536,0,0,1-.738.111.887.887,0,0,1-.448-.7,11.216,11.216,0,0,0-.073-2.264c-.178-.42-.48-.266-.6-.144a5.381,5.381,0,0,0-1.108,2.552c-.172.617-.355.441-.481.188-.312-.32-.331-2.883-.706-2.463" transform="translate(-0.257 -7.637)" fill="#fff"/>
      <path id="Path_19768" data-name="Path 19768" d="M16.075,11.189c0,.011-.008.011-.017.011v.011c-.039.022-.091.1-.194.188a1.066,1.066,0,0,0-.194.828c.008.056.328,1.061.606,1.778a6.2,6.2,0,0,1,.231,2.4,5.611,5.611,0,0,1-2.148,2.517.994.994,0,0,1-.9,0v-.011a.641.641,0,0,1-.242-.575,5.483,5.483,0,0,0,2.161-2.5,2.927,2.927,0,0,0,.058-1.812,1.906,1.906,0,0,0-.367-.828s0,0,0-.011c.12-.066.431.2.483.033a2.713,2.713,0,0,0-.625-1.281.487.487,0,0,0-.762-.055c-.258.166-.313.752-.192,1.27.141.375.52.442.791,1.214v.011a1.647,1.647,0,0,1-.047.806,8.569,8.569,0,0,1-1.617,1.7l-.011.011V16.9h-.017v-.013a1.784,1.784,0,0,0,0-.253c0-.22.08-.752.073-.85v-.011c-.461.342-.625,1.38-.7,1.689a20.923,20.923,0,0,0-3.281,2.528c-.4.7,2.767-.817,3.125-.994a.016.016,0,0,1,.014.011,2.88,2.88,0,0,0,.283.652,1.573,1.573,0,0,0,1.709.625,5.691,5.691,0,0,0,2.473-2.319c.094-.156.245-.277.381-.156a3.8,3.8,0,0,0,3.5,2.067c.4-.542.209-.817.047-.917-.052-.044-.855-.4-.977-.75-.077-.32.109-.608.5-.83a15.275,15.275,0,0,0,3.233-.7,3.437,3.437,0,0,1,.355-1.25.563.563,0,0,1,.183-.222v-.022a.063.063,0,0,0,0-.022L23.8,15.05l-3.513-.022a.425.425,0,0,1-.1-.055v-.066a.214.214,0,0,1,.111-.078c.844-.122,2.331-.4,2.428-2.02a1.35,1.35,0,0,0-1.236-1.534,1.389,1.389,0,0,0-1.077,1.6c-.03.211.069.641-.128.684-1.294.144-2.7,1.05-2.755,1.7h-.017l-.009.011H17.49l-.016-.011a.378.378,0,0,1-.172-.4,8.5,8.5,0,0,0-.889-3.378c-.178-.209-.259-.288-.313-.3h-.022m5.136,1.447a.483.483,0,0,1,.491.408v.042a.254.254,0,0,0-.022.022c-.069.077-.219.066-.369-.034a.423.423,0,0,1-.216-.312v-.013c0-.022.009-.033.016-.033l.009-.022c0-.011,0-.011.017-.022a.111.111,0,0,1,.083-.033M17.958,15.97h.034a9.045,9.045,0,0,0,1.47.187c.408.033.609.386.228.541s-.739.255-.739.873a.925.925,0,0,1,0,.53c0,.011-.009.022-.016.022v.022h-.011l-.017.011a.016.016,0,0,1-.014.011c-.094.011-.223-.1-.323-.144A2.284,2.284,0,0,1,17.6,16.4a.4.4,0,0,1,.366-.431" transform="translate(-1.961 -5.651)" fill="#fff"/>
      <path id="Path_19769" data-name="Path 19769" d="M7.642,9.045c.408.209,1.166.122,1.134-.608,0-.066-.013-.286-.017-.342-.08-.22-.312-.177-.359.056-.017.066.025.188-.031.231s-.164.011-.156-.187a.325.325,0,0,0-.066-.177.1.1,0,0,0-.1-.033c-.055.011-.055.022-.08.077a.517.517,0,0,0-.031.166c-.009.077-.037.1-.084.111s-.036.011-.083-.022c-.022-.034-.059-.045-.059-.1a1,1,0,0,0-.019-.177.181.181,0,0,0-.1-.066c-.223,0-.238.286-.223.4-.019.022-.027.53.273.673" transform="translate(-2.955 -7.471)" fill="#fff"/>
      <path id="Path_19770" data-name="Path 19770" d="M15.237,12.668c.4.211,1.367.089,1.136-.625a3.386,3.386,0,0,0-.025-.342c-.08-.22-.3-.166-.358.056-.013.077.031.2-.027.242s-.166,0-.156-.2a.292.292,0,0,0-.066-.166.109.109,0,0,0-.092-.033c-.053.011-.053.022-.084.077a.644.644,0,0,0-.03.166c0,.078-.033.1-.081.111s-.034.011-.081-.022-.059-.044-.059-.1a.489.489,0,0,0-.027-.177.156.156,0,0,0-.1-.066c-.219,0-.231.286-.223.4-.013.011-.022.519.278.673" transform="translate(1.32 -5.441)" fill="#fff"/>
      <path id="Path_19771" data-name="Path 19771" d="M19.668,11.168c.4.209,1.164.111,1.133-.625,0-.055-.012-.275-.017-.342-.086-.209-.312-.166-.359.067-.019.066.023.187-.036.22-.03.044-.156.022-.156-.188a.409.409,0,0,0-.066-.177.181.181,0,0,0-.089-.011c-.053,0-.053.011-.086.066a.683.683,0,0,0-.031.177.087.087,0,0,1-.081.1c-.052.011-.042.011-.078-.022a.123.123,0,0,1-.059-.1.861.861,0,0,0-.027-.187.248.248,0,0,0-.1-.044c-.22,0-.239.286-.223.386-.016.022-.025.53.277.673" transform="translate(3.811 -6.282)" fill="#fff"/>
      <path id="Path_19772" data-name="Path 19772" d="M22.019,18.276a3.072,3.072,0,0,0-.236,2.694,2.077,2.077,0,0,0,.872,1.116.566.566,0,0,0,.913-.111c.412-.486.423-1.711.614-1.955.141-.453.48-.375.645-.177a1.8,1.8,0,0,0,.592.575.916.916,0,0,0,1.3.1,1.611,1.611,0,0,0,.7-.95,38.849,38.849,0,0,0,.052-5.586c-.02-.133-.4-2.3-.4-2.32s-.055-1.1-.094-1.358c-.009-.109-.031-.144.067-.131.1.109.113.12.178.142.1.023.2-.177.136-.364-.312-.663-.645-1.336-.967-1.987-.073-.1-.177-.187-.3.011a.834.834,0,0,0-.234.6c.03.469.1.961.13,1.436.13.8.258,1.622.388,2.439.12,1.734.156,3.323.275,5.058a3.438,3.438,0,0,1-.417,1.8s-.283.2-.478-.011a6.479,6.479,0,0,1-.709-1.061c-.291-.3-.484-.22-.691,0a11.156,11.156,0,0,0-1.208,2.563c-.1.177-.383.331-.692-.011a4.03,4.03,0,0,1-.43-2.5" transform="translate(5.043 -7.526)" fill="#fff"/>
      <path id="Path_19773" data-name="Path 19773" d="M19.847,8.051a1.562,1.562,0,0,1,.533,1.392c-.073.5-.263,1.048-.4.972s.1-.5-.039-.95c-.086-.3-.577-.828-.525-.994a.333.333,0,0,1,.434-.42" transform="translate(3.815 -7.427)" fill="#fff"/>
      <path id="Path_19774" data-name="Path 19774" d="M23.282,18.742a13.613,13.613,0,0,0-.077-2.187c-.022-.573-.581-5.312-.7-5.753-.138-.827.548-.109.469-.6-.234-.608-.823-1.5-1.006-2.031-.117-.233-.069-.431-.312-.056a5.213,5.213,0,0,0-.223,2.077,50.645,50.645,0,0,1,1.113,9.981c.28,0,.6-.717.744-1.434" transform="translate(4.948 -7.495)" fill="#fff"/>
      <path id="Path_19775" data-name="Path 19775" d="M25.629,11.684c.339.2.53,1.225.494,1.523-.064.541-.239,1.127-.366,1.048s.027-.8-.039-1.027c-.08-.32-.525-.9-.48-1.081a.344.344,0,0,1,.391-.469" transform="translate(7.092 -5.379)" fill="#fff"/>
      <path id="Path_19776" data-name="Path 19776" d="M10.986,13.642c.313.133.5.9.469,1.116-.064.4-.231.817-.35.781s.028-.6-.039-.763c-.023-.408-.469-.625-.453-.8-.084-.32.178-.375.378-.331" transform="translate(-1.134 -4.273)" fill="#fff"/>
      <path id="Path_19777" data-name="Path 19777" d="M5.572,7.884c.469.156.494.927.469,1.159-.064.408-.231.85-.353.8s0-.608-.066-.781c-.067-.255-.469-.684-.416-.817-.091-.277.177-.409.37-.353" transform="translate(-4.176 -7.514)" fill="#fff"/>
      <path id="Path_19778" data-name="Path 19778" d="M11.471,10.237a1.006,1.006,0,0,0-.273,1.25.508.508,0,0,0,.58.2c.352.055.559-.741.559-.741s.011-.22-.4.2c-.178.045-.2-.033-.245-.144a1.1,1.1,0,0,1,.053-.617c.064-.2-.07-.288-.272-.144" transform="translate(-0.858 -6.223)" fill="#fff"/>
      <path id="Path_19779" data-name="Path 19779" d="M13.252,7.716a1.489,1.489,0,0,0-.545,1.038c-.014.266-.059.266.1.442.117.188.233.166.461.022a.538.538,0,0,0,.222-.353c.056-.312-.287.144-.334-.2-.073-.32.145-.442.356-.762,0-.209,0-.353-.258-.187" transform="translate(0.044 -7.644)" fill="#fff"/>
      <path id="Path_19780" data-name="Path 19780" d="M14.5,8.107a7.171,7.171,0,0,0-.156,1.2c-.064.3.283.43.434.044a3.933,3.933,0,0,0,.245-1.314c-.069-.453-.344-.43-.523.067" transform="translate(0.967 -7.603)" fill="#fff"/>
      <path id="Path_19781" data-name="Path 19781" d="M23.205,13.521c.05-.045,1.922-1.547,1.922-1.547.192-.077.156.781.064.763A7.414,7.414,0,0,1,23.205,14.3c-.091.067-.184-.584,0-.772" transform="translate(5.899 -5.211)" fill="#fff"/>
      <path id="Path_19782" data-name="Path 19782" d="M24.406,12.962c.334.188.469,1.269.428,1.563.013.575-.312,1.037-.447.972s.014-.717-.05-.95a5.075,5.075,0,0,1-.313-1.094c-.094-.366.178-.564.38-.5" transform="translate(6.409 -4.663)" fill="#fff"/>
      <path id="Path_19783" data-name="Path 19783" d="M17.146,16.149a2.828,2.828,0,0,1,.533-.519.3.3,0,0,1,.363.077c.033.2-.116.4-.069.673.037.111.069.244.25.189a1.164,1.164,0,0,1,.872-.288c.234,0,.236.441.1.441A6.017,6.017,0,0,0,18,17.191a.248.248,0,0,1-.345-.055.417.417,0,0,1-.033-.386c.016-.222-.064-.342-.231-.331-.125.087-.233.131-.3-.022-.022-.122-.031-.187.05-.255" transform="translate(2.514 -3.169)" fill="#fff"/>
      <path id="Path_19784" data-name="Path 19784" d="M25.672,16.543a.292.292,0,0,1,0,.408c-.134.144-.223.209-.358.353-.059.122-.1.3.089.353.348.111,1.161-.469,1.161-.5a.292.292,0,0,0,.077-.32c-.077-.1-.247-.044-.361-.044-.059,0-.239-.044-.156-.209a1.6,1.6,0,0,0,.147-.312c.052-.144.011-.231-.194-.312a1.531,1.531,0,0,0-.5,0c-.12.033-.156.1-.184.255.008.242.142.231.283.331" transform="translate(7.117 -2.977)" fill="#fff"/>
    </g>
  </g>
</svg>
