<svg xmlns="http://www.w3.org/2000/svg" viewBox="0 0 600 117"><polygon points="596.71 3.95 596.71 71.92 448.3 71.92 448.3 113.05 372.79 113.05 372.79 86.23 421.65 86.23 421.65 30.78 399.44 30.78 399.44 45.09 411.66 45.09 417.1 71.92 372.79 71.92 372.79 3.95 448.3 3.95 448.3 45.09 481.62 45.09 481.62 3.95 508.27 3.95 508.27 45.09 525.85 45.09 525.85 3.95 552.5 3.95 552.5 45.09 570.06 45.09 570.06 3.95 596.71 3.95" style="fill:#fff"/><rect x="245.82" y="3.95" width="26.65" height="26.83" style="fill:#fff"/><rect x="245.82" y="37.63" width="26.65" height="26.83" style="fill:#fff"/><path d="M286.5,4v68h41.05V86.23H272.47V71.92H245.82v41.13H354.2V4Zm41.05,41.14h-14.4V30.78h14.4Z" style="fill:#fff"/><polygon points="227.21 3.95 227.21 113.05 13 113.05 13 86.23 200.56 86.23 200.56 71.92 151.7 71.92 151.7 3.95 178.35 3.95 178.35 45.09 200.56 45.09 200.56 3.95 227.21 3.95" style="fill:#fff"/><polygon points="134.74 3.95 134.74 71.92 108.09 71.92 108.09 30.78 87.19 30.78 87.19 71.92 60.54 71.92 60.54 30.78 39.65 30.78 39.65 71.92 13 71.92 13 30.78 8.74 30.78 3.29 3.95 134.74 3.95" style="fill:#fff"/></svg>