<svg xmlns="http://www.w3.org/2000/svg" width="48" height="48" viewBox="0 0 48 48">
  <g id="Group_16196" data-name="Group 16196" transform="translate(-10 -92)">
    <rect id="Rectangle_7962" data-name="Rectangle 7962" width="48" height="48" rx="24" transform="translate(10 92)" fill="#ffdbcc"/>
    <g id="percentage" transform="translate(21.938 103.938)">
      <path id="Path_19862" data-name="Path 19862" d="M404.18,76.551l-1.082-.83.83-1.082a.728.728,0,0,0-.3-1.116L402.369,73l.522-1.26a.728.728,0,0,0-.578-1l-1.352-.178.178-1.352a.728.728,0,0,0-.817-.817l-.578.076V85.79l.578.076a.728.728,0,0,0,.817-.817l-.178-1.352,1.352-.178a.728.728,0,0,0,.578-1l-.522-1.26,1.26-.522a.728.728,0,0,0,.3-1.116l-.83-1.082,1.082-.83A.728.728,0,0,0,404.18,76.551Z" transform="translate(-380.339 -65.066)" fill="#fa6348"/>
      <path id="Path_19863" data-name="Path 19863" d="M18.452,21.974l.178-1.352.774.1a.756.756,0,0,0,.34-.741l-.157-1.352,1.189-.178a.738.738,0,0,0,.508-1l-.459-1.26,1.108-.522a.777.777,0,0,0,.263-1.116l-.73-1.082.951-.83a.792.792,0,0,0,0-1.156l-.951-.83.73-1.082a.777.777,0,0,0-.263-1.116l-1.108-.522.459-1.26a.738.738,0,0,0-.508-1L19.589,5.5l.157-1.352A.756.756,0,0,0,19.4,3.4l-.774.1-.015-.116-.163-1.236a.728.728,0,0,0-1-.578l-1.26.522L15.669.836a.728.728,0,0,0-1.116-.3l-1.082.83L12.641.285a.728.728,0,0,0-1.156,0l-.83,1.082L9.573.536a.728.728,0,0,0-1.116.3L7.934,2.1l-1.26-.522a.728.728,0,0,0-1,.578L5.5,3.5,4.143,3.326a.728.728,0,0,0-.817.817L3.5,5.5l-1.352.178a.728.728,0,0,0-.578,1L2.1,7.934l-1.26.522a.728.728,0,0,0-.3,1.116l.83,1.082-1.082.83a.728.728,0,0,0,0,1.156l1.082.83-.83,1.082a.728.728,0,0,0,.3,1.116l1.26.522-.522,1.26a.728.728,0,0,0,.578,1L3.5,18.63l-.178,1.352a.728.728,0,0,0,.817.817L5.5,20.622l.178,1.352a.728.728,0,0,0,1,.578l1.26-.522.522,1.26a.728.728,0,0,0,1.116.3l1.082-.83.83,1.082a.728.728,0,0,0,1.156,0l.83-1.082,1.082.83a.728.728,0,0,0,1.116-.3l.522-1.26,1.26.522A.728.728,0,0,0,18.452,21.974Z" fill="#fc7c49"/>
      <g id="Group_14653" data-name="Group 14653" transform="translate(5.546 5.546)">
        <path id="Path_19864" data-name="Path 19864" d="M265.659,262.746a2.913,2.913,0,1,0,2.913,2.913A2.913,2.913,0,0,0,265.659,262.746Zm0,4.369a1.456,1.456,0,1,1,1.456-1.456A1.456,1.456,0,0,1,265.659,267.115Z" transform="translate(-255.538 -255.538)" fill="#fffbdb"/>
        <path id="Path_19865" data-name="Path 19865" d="M117.167,114.254a2.913,2.913,0,1,0,2.913,2.913A2.913,2.913,0,0,0,117.167,114.254Zm0,4.369a1.456,1.456,0,1,1,1.456-1.456A1.456,1.456,0,0,1,117.167,118.623Z" transform="translate(-114.254 -114.254)" fill="#fffbdb"/>
        <path id="Path_19866" data-name="Path 19866" d="M135.072,145.678a.728.728,0,0,1,0-1.03l9.577-9.577a.728.728,0,0,1,1.03,1.03l-9.577,9.577A.728.728,0,0,1,135.072,145.678Z" transform="translate(-133.858 -133.858)" fill="#fffbdb"/>
      </g>
    </g>
  </g>
</svg>
