<svg
    xmlns="http://www.w3.org/2000/svg"
    viewBox="0 0 24 24"
    id="vector">
    <path
        id="path"
        d="M 16.336 14.175 L 17.681 13.001 C 17.771 12.922 17.835 12.817 17.862 12.7 C 17.889 12.584 17.878 12.461 17.831 12.351 C 17.784 12.241 17.703 12.148 17.6 12.087 C 17.497 12.026 17.377 11.998 17.258 12.009 C 17.139 12.02 17.026 12.069 16.936 12.148 L 14.458 14.308 C 14.377 14.379 14.318 14.472 14.287 14.576 C 14.257 14.679 14.257 14.79 14.287 14.893 C 14.318 14.997 14.377 15.09 14.458 15.161 L 16.935 17.323 C 17.048 17.421 17.196 17.471 17.345 17.46 C 17.495 17.45 17.634 17.381 17.733 17.268 C 17.831 17.155 17.881 17.008 17.871 16.858 C 17.861 16.709 17.793 16.569 17.68 16.47 L 16.353 15.312 C 17.318 15.35 18.232 15.763 18.899 16.462 C 19.565 17.161 19.935 18.093 19.927 19.059 L 19.927 20.5 C 19.933 20.646 19.996 20.784 20.101 20.885 C 20.207 20.987 20.347 21.043 20.494 21.043 C 20.64 21.043 20.78 20.987 20.886 20.885 C 20.991 20.784 21.054 20.646 21.06 20.5 L 21.06 19.061 C 21.068 17.791 20.578 16.567 19.695 15.654 C 18.812 14.741 17.606 14.21 16.336 14.175 Z"
        fill="#303030"/>
    <path
        id="path_1"
        d="M 9.9 2.947 L 6.231 2.962 C 5.996 2.963 5.766 3.026 5.564 3.146 C 5.363 3.265 5.196 3.437 5.083 3.642 L 3.165 7.115 L 9.53 7.1 Z"
        fill="#303030"/>
    <path
        id="path_2"
        d="M 17.798 7.085 L 15.858 3.612 C 15.743 3.406 15.576 3.235 15.373 3.115 C 15.17 2.996 14.939 2.933 14.703 2.932 L 11.033 2.952 L 11.418 7.105 Z"
        fill="#303030"/>
    <path
        id="path_3"
        d="M 18.041 10.634 C 17.808 10.543 17.559 10.496 17.309 10.498 C 16.806 10.499 16.32 10.681 15.941 11.011 L 13.464 13.171 C 13.166 13.433 12.948 13.774 12.837 14.155 C 12.726 14.536 12.726 14.94 12.837 15.321 C 12.948 15.702 13.166 16.043 13.464 16.305 L 15.458 18.04 L 4.158 18.07 L 4.147 18.07 C 3.832 18.068 3.531 17.941 3.309 17.718 C 3.087 17.495 2.962 17.193 2.961 16.878 L 2.931 8.248 L 9.915 8.233 L 11.048 8.233 L 18.032 8.21 Z"
        fill="#303030"/>
</svg>
