<svg xmlns="http://www.w3.org/2000/svg" width="17.16" height="11.595" viewBox="0 0 17.16 11.595">
  <g id="coupon" transform="translate(-0.25 -5.033)">
    <path id="Path_92230" data-name="Path 92230" d="M20.376,15.719a1.327,1.327,0,0,0,0,2.655A1.327,1.327,0,0,0,20.376,15.719Zm-.457,1.329a.455.455,0,0,1,.91,0A.455.455,0,0,1,19.919,17.048Z" transform="translate(-7.869 -4.47)" fill="#06b7fd"/>
    <path id="Path_92231" data-name="Path 92231" d="M14.376,12.372a1.327,1.327,0,0,0,0-2.655A1.327,1.327,0,0,0,14.376,12.372Zm0-1.782a.455.455,0,0,1,0,.91A.455.455,0,0,1,14.376,10.59Z" transform="translate(-5.36 -1.959)" fill="#06b7fd"/>
    <path id="Path_92232" data-name="Path 92232" d="M19.013,10.045a.438.438,0,0,0-.619,0L13.34,15.075a.436.436,0,1,0,.615.618l5.055-5.03A.437.437,0,0,0,19.013,10.045Z" transform="translate(-5.42 -2.043)" fill="#06b7fd"/>
    <path id="Path_92233" data-name="Path 92233" d="M8.538,10.537a.436.436,0,0,0-.436.436v1.119a.436.436,0,0,0,.873,0V10.973A.436.436,0,0,0,8.538,10.537Z" transform="translate(-3.285 -2.302)" fill="#06b7fd"/>
    <path id="Path_92234" data-name="Path 92234" d="M8.538,16.041a.436.436,0,0,0-.436.436V17.6a.436.436,0,1,0,.873,0V16.477A.436.436,0,0,0,8.538,16.041Z" transform="translate(-3.285 -4.605)" fill="#06b7fd"/>
    <path id="Path_92235" data-name="Path 92235" d="M16.612,9.389a1.513,1.513,0,0,0,.8-1.338v-1.5a1.524,1.524,0,0,0-1.522-1.522H1.772A1.524,1.524,0,0,0,.25,6.555V8.05a1.513,1.513,0,0,0,.8,1.338,1.636,1.636,0,0,1,0,2.884,1.512,1.512,0,0,0-.8,1.339v1.495a1.524,1.524,0,0,0,1.522,1.522H15.887a1.524,1.524,0,0,0,1.522-1.522V13.611a1.513,1.513,0,0,0-.8-1.338A1.645,1.645,0,0,1,16.612,9.389Zm-1.437,2.625A2.506,2.506,0,0,0,16.2,13.04a.639.639,0,0,1,.336.569V15.1a.65.65,0,0,1-.65.65H5.689c-.024-.378.15-1.1-.436-1.116-.587.014-.412.741-.436,1.119H1.772a.65.65,0,0,1-.65-.65V13.611a.639.639,0,0,1,.336-.569,2.508,2.508,0,0,0,0-4.421.639.639,0,0,1-.336-.569v-1.5a.65.65,0,0,1,.65-.65H4.816c.024.379-.151,1.1.436,1.119.587-.014.412-.741.436-1.119h10.2a.65.65,0,0,1,.65.65V8.05a.639.639,0,0,1-.336.569A2.507,2.507,0,0,0,15.175,12.014Z" transform="translate(0)" fill="#06b7fd"/>
  </g>
</svg>
