<svg id="arrow" xmlns="http://www.w3.org/2000/svg" width="37.861" height="37.861" viewBox="0 0 37.861 37.861">
  <path id="Path_20151" data-name="Path 20151" d="M15.76,18.537A13.347,13.347,0,0,0,14.2,24.8a12.835,12.835,0,0,0,.426,3.329L0,20.21V4.86l15.76,7.683Z" transform="translate(0 2.807)" fill="#ffcc80"/>
  <path id="Path_20152" data-name="Path 20152" d="M25.77,4.86v7.115a13.553,13.553,0,0,0-3.944-.584A13.4,13.4,0,0,0,10.01,18.474V12.543Z" transform="translate(5.781 2.807)" fill="#ffb74d"/>
  <path id="Path_20153" data-name="Path 20153" d="M31.551,7.667,15.791,15.35,9.655,12.368,7.1,11.122,0,7.667,15.76,0l6.72,3.266,2.682,1.294Z" transform="translate(0 0)" fill="#ffa726"/>
  <path id="Path_20154" data-name="Path 20154" d="M22.343,3.27,6.754,11.037v7.847L4.282,17.625V9.832L19.663,1.976Z" transform="translate(2.473 1.141)" fill="#795548"/>
  <path id="Path_20155" data-name="Path 20155" d="M0,4.86V20.21l14.624,7.919A12.835,12.835,0,0,1,14.2,24.8a13.347,13.347,0,0,1,1.562-6.263V12.543L9.241,9.365l-.014.006v7.847L6.757,15.96V8.167l.014-.006Z" transform="translate(0 2.807)" fill="#deb26f"/>
  <path id="Path_20156" data-name="Path 20156" d="M15.776,8.916,9.248,12.169l.407.2,6.121,2.974ZM15.76,0,0,7.667l6.774,3.3,9-4.6V.008Z" transform="translate(0 0)" fill="#de9121"/>
  <path id="Path_20157" data-name="Path 20157" d="M13.3,4.036l-9,4.6,0,0-.014.006v7.793l2.472,1.259V9.848l.014-.006.006,0L13.3,6.585Z" transform="translate(2.473 2.331)" fill="#694a3f"/>
  <path id="Path_20158" data-name="Path 20158" d="M21.254,31.508A10.254,10.254,0,1,1,31.508,21.254,10.266,10.266,0,0,1,21.254,31.508Z" transform="translate(6.353 6.353)" fill="#4caf50"/>
  <path id="Path_20159" data-name="Path 20159" d="M19.522,22.311a1.184,1.184,0,0,1-.8-.308l-4.338-3.944a1.184,1.184,0,0,1,1.593-1.753l3.542,3.221,3.542-3.221a1.184,1.184,0,0,1,1.593,1.753L20.318,22A1.184,1.184,0,0,1,19.522,22.311Z" transform="translate(8.086 9.24)" fill="#fff"/>
  <path id="Path_20160" data-name="Path 20160" d="M21.254,11a10.254,10.254,0,1,0,0,20.508V25.2a1.184,1.184,0,0,1-.8-.308l-4.338-3.944A1.184,1.184,0,0,1,17.713,19.2l3.542,3.221Z" transform="translate(6.353 6.353)" fill="#429846"/>
  <path id="Path_20161" data-name="Path 20161" d="M15.182,16a1.185,1.185,0,0,0-.8,2.06L18.725,22a1.19,1.19,0,0,0,.8.306V19.527L15.98,16.306A1.187,1.187,0,0,0,15.182,16Z" transform="translate(8.086 9.241)" fill="#dedede"/>
</svg>
