<svg xmlns="http://www.w3.org/2000/svg" width="51.7" height="51.7" viewBox="0 0 51.7 51.7">
  <g id="china_1_" data-name="china (1)" transform="translate(-31.15 -31.15)">
    <path id="Path_19744" data-name="Path 19744" d="M82,57A25,25,0,1,1,57,32,25,25,0,0,1,82,57Z" fill="#e92b2b" stroke="#fff" stroke-width="1.7" fill-rule="evenodd"/>
    <g id="Group_14585" data-name="Group 14585" transform="translate(39.143 40.036)">
      <path id="Path_19745" data-name="Path 19745" d="M101.1,128l1.2,3.7h3.892l-3.149,2.288,1.2,3.7L101.1,135.4l-3.149,2.288,1.2-3.7L96,131.7h3.892Z" transform="translate(-96 -125.321)" fill="#ffe70e"/>
      <path id="Path_19746" data-name="Path 19746" d="M208.136,104l.4,1.234h1.3l-1.05.763.4,1.234-1.05-.763-1.05.763.4-1.234-1.049-.763h1.3Z" transform="translate(-194.112 -104)" fill="#ffe70e"/>
      <path id="Path_19747" data-name="Path 19747" d="M208.136,216l.4,1.234h1.3l-1.05.763.4,1.234-1.05-.763-1.05.763.4-1.234-1.049-.763h1.3Z" transform="translate(-194.112 -203.5)" fill="#ffe70e"/>
      <path id="Path_19748" data-name="Path 19748" d="M240.136,136l.4,1.234h1.3l-1.05.763.4,1.234-1.05-.763-1.05.763.4-1.234-1.05-.763h1.3Z" transform="translate(-222.541 -132.429)" fill="#ffe70e"/>
      <path id="Path_19749" data-name="Path 19749" d="M240.136,184l.4,1.234h1.3l-1.05.763.4,1.234-1.05-.763-1.05.763.4-1.234-1.05-.763h1.3Z" transform="translate(-222.541 -175.071)" fill="#ffe70e"/>
    </g>
  </g>
</svg>
