<svg id="_002-wallet" data-name="002-wallet" xmlns="http://www.w3.org/2000/svg" width="17.245" height="17.237" viewBox="0 0 17.245 17.237">
  <path id="Path_38286" data-name="Path 38286" d="M16.235,8.377V6.344a1.854,1.854,0,0,0-1.785-1.851V3.245a1.18,1.18,0,0,0-1.179-1.179H10.025L9.606.9A1.179,1.179,0,0,0,8.094.193L2.2,2.336a1.179,1.179,0,0,0-.7,1.513l.237.646A1.855,1.855,0,0,0,0,6.344v9.161a1.855,1.855,0,0,0,1.852,1.852h12.53a1.855,1.855,0,0,0,1.852-1.852V13.4a1.181,1.181,0,0,0,1.01-1.167V9.543A1.181,1.181,0,0,0,16.235,8.377Zm0,3.861a.169.169,0,0,1-.168.168H13.372a1.516,1.516,0,1,1,0-3.031h2.695a.169.169,0,0,1,.168.168ZM2.449,3.5a.168.168,0,0,1,.1-.216L8.439,1.142a.168.168,0,0,1,.216.1l.3.823H8.724A1.18,1.18,0,0,0,7.545,3.245V4.491H2.812Zm10.99-.257V4.491H8.555V3.245a.169.169,0,0,1,.168-.168h4.547A.169.169,0,0,1,13.439,3.245Zm.943,13.1H1.852a.843.843,0,0,1-.842-.842V6.344A.843.843,0,0,1,1.852,5.5h12.53a.843.843,0,0,1,.842.842V8.365H13.372a2.526,2.526,0,0,0,0,5.052h1.852v2.088A.843.843,0,0,1,14.382,16.347Z" transform="translate(0 -0.121)" fill="#06b7fd"/>
  <ellipse id="Ellipse_931" data-name="Ellipse 931" cx="0.505" cy="0.505" rx="0.505" ry="0.505" transform="translate(12.866 10.265)" fill="#06b7fd"/>
</svg>
