<svg id="_001-location" data-name="001-location" xmlns="http://www.w3.org/2000/svg" width="14.587" height="17.245" viewBox="0 0 14.587 17.245">
  <g id="Group_73936" data-name="Group 73936" transform="translate(0)">
    <g id="Group_73935" data-name="Group 73935">
      <path id="Path_38284" data-name="Path 38284" d="M51.9,2.136A7.294,7.294,0,0,0,39.451,7.294c0,3.941,3.726,7.219,5.728,8.98.278.245.518.456.71.635a1.257,1.257,0,0,0,1.711,0c.191-.179.432-.39.71-.635,2-1.761,5.728-5.039,5.728-8.98A7.246,7.246,0,0,0,51.9,2.136ZM47.643,15.516c-.284.25-.53.466-.732.655a.244.244,0,0,1-.332,0c-.2-.189-.448-.405-.732-.655-1.882-1.656-5.386-4.737-5.386-8.222a6.284,6.284,0,0,1,12.567,0C53.028,10.778,49.525,13.86,47.643,15.516Z" transform="translate(-39.451)" fill="#06b7fd"/>
    </g>
  </g>
  <g id="Group_73938" data-name="Group 73938" transform="translate(4.079 3.804)">
    <g id="Group_73937" data-name="Group 73937">
      <path id="Path_38285" data-name="Path 38285" d="M163.784,112.938A3.214,3.214,0,1,0,167,116.152,3.218,3.218,0,0,0,163.784,112.938Zm0,5.418a2.2,2.2,0,1,1,2.2-2.2A2.207,2.207,0,0,1,163.784,118.356Z" transform="translate(-160.57 -112.938)" fill="#06b7fd"/>
    </g>
  </g>
</svg>
