<svg xmlns="http://www.w3.org/2000/svg" width="16.001" height="10.134" viewBox="0 0 16.001 10.134">
  <g id="cargo-truck" transform="translate(0 -112.204)">
    <g id="Group_75116" data-name="Group 75116" transform="translate(0 112.204)">
      <path id="Path_92236" data-name="Path 92236" d="M454.24,395.756a1.36,1.36,0,1,0,1.36,1.36A1.362,1.362,0,0,0,454.24,395.756Zm0,1.76a.4.4,0,1,1,.4-.4A.4.4,0,0,1,454.24,397.516Z" transform="translate(-441.039 -388.342)" fill="#2e8bf8"/>
      <path id="Path_92237" data-name="Path 92237" d="M400.47,179.518h-2.35a.32.32,0,0,0-.32.32v6.24a.32.32,0,0,0,.32.32h.339a.319.319,0,0,0,.319-.271,1.844,1.844,0,0,1,3.643,0,.319.319,0,0,0,.319.271h.339a.32.32,0,0,0,.32-.32v-3.12a.32.32,0,0,0-.075-.205l-2.61-3.12A.32.32,0,0,0,400.47,179.518Zm-2.03,2.56v-1.6a.32.32,0,0,1,.32-.32h1.41a.32.32,0,0,1,.246.115l1.333,1.6a.32.32,0,0,1-.246.525H398.76A.32.32,0,0,1,398.44,182.078Z" transform="translate(-387.399 -177.758)" fill="#2e8bf8"/>
      <path id="Path_92238" data-name="Path 92238" d="M.32,120.845h.819a.319.319,0,0,0,.319-.271,1.764,1.764,0,0,1,1.822-1.559A1.764,1.764,0,0,1,5.1,120.573a.319.319,0,0,0,.319.271H9.441a.32.32,0,0,0,.32-.32v-8a.32.32,0,0,0-.32-.32H.32a.32.32,0,0,0-.32.32v8A.32.32,0,0,0,.32,120.845Z" transform="translate(0 -112.204)" fill="#2e8bf8"/>
      <path id="Path_92239" data-name="Path 92239" d="M74.8,395.756a1.36,1.36,0,1,0,1.36,1.36A1.362,1.362,0,0,0,74.8,395.756Zm0,1.76a.4.4,0,1,1,.4-.4A.4.4,0,0,1,74.8,397.516Z" transform="translate(-71.52 -388.342)" fill="#2e8bf8"/>
    </g>
  </g>
</svg>
