<svg xmlns="http://www.w3.org/2000/svg" width="48" height="48" viewBox="0 0 48 48">
  <g id="Group_16197" data-name="Group 16197" transform="translate(-10 -92)">
    <rect id="Rectangle_7962" data-name="Rectangle 7962" width="48" height="48" rx="24" transform="translate(10 92)" fill="#ebffe3"/>
    <g id="youth" transform="translate(-4.931 104.5)">
      <path id="Path_19867" data-name="Path 19867" d="M176.414,106.639h-.762l-.047.05v.449a.889.889,0,0,1-.593.813,1.39,1.39,0,0,0,.284,2.152l.262.04,1.831-.709V108.4Z" transform="translate(-139.507 -101.64)" fill="#365e7d"/>
      <path id="Path_19868" data-name="Path 19868" d="M176.278,107.952a1,1,0,0,0,.555-.556l-.419-.757h-.762l-.047.05v.449a.889.889,0,0,1-.593.813,1.39,1.39,0,0,0,.284,2.152l.262.04.7-.27A1.4,1.4,0,0,1,176.278,107.952Z" transform="translate(-139.507 -101.64)" fill="#2b4d66"/>
      <path id="Path_19869" data-name="Path 19869" d="M280.528,107.39a.889.889,0,0,1-.593-.813v-.456l-.075-.071h-.8l-.918,1.856v.94l1.89.736.176-.053A1.4,1.4,0,0,0,280.528,107.39Z" transform="translate(-238.174 -101.079)" fill="#365e7d"/>
      <path id="Path_19870" data-name="Path 19870" d="M151.67,171.646l-2.249-.871-.2.089h-3.472l-.248-.088-2.244.87a1.934,1.934,0,0,0-1.13,1.752v3.157H152.8V173.4A1.928,1.928,0,0,0,151.67,171.646Z" transform="translate(-108.534 -162.77)" fill="#ff7f87"/>
      <path id="Path_19871" data-name="Path 19871" d="M299.716,78.346l-.063-.063H298.9V79.6l.042.086h.568a.687.687,0,0,0,.206-1.342Z" transform="translate(-257.959 -74.614)" fill="#ffcebe"/>
      <path id="Path_19872" data-name="Path 19872" d="M185.35,78.258h0a.686.686,0,0,0,.184,1.348h.593l.065-.076V78.2H185.4Z" transform="translate(-149.253 -74.532)" fill="#ffcebe"/>
      <path id="Path_19873" data-name="Path 19873" d="M299.574,78.283H298.9V79.6l.042.086h.568c.021,0,.042,0,.063,0v-1.4Z" transform="translate(-257.96 -74.614)" fill="#ffb1a0"/>
      <path id="Path_19874" data-name="Path 19874" d="M185.522,78.921a.686.686,0,0,1,.5-.661h0l.049-.061H185.4l-.049.061h0a.686.686,0,0,0,.184,1.348h.593l0,0A.687.687,0,0,1,185.522,78.921Z" transform="translate(-149.254 -74.533)" fill="#ffb1a0"/>
      <path id="Path_19875" data-name="Path 19875" d="M217.348,145.118a.209.209,0,0,1-.133-.194v-.7l-.092-.1h-2.112l-.107.1v.694c0,.16-.143.2-.2.222l-.6.234a2.06,2.06,0,0,0,3.92,0Z" transform="translate(-177.131 -137.372)" fill="#ffcebe"/>
      <path id="Path_19876" data-name="Path 19876" d="M216.06,144.128h-1.049l-.107.1v.694c0,.16-.143.2-.2.222l-.6.234a2.029,2.029,0,0,0,1.963,1.425Z" transform="translate(-177.131 -137.372)" fill="#ffb1a0"/>
      <path id="Path_19877" data-name="Path 19877" d="M240.59,57.355h-.9l-.709-.88h-.422l-.657.712V59a2.079,2.079,0,0,0,1.38,1.962,2.056,2.056,0,0,0,1.521-1.979V57.529Z" transform="translate(-199.818 -53.828)" fill="#ffdecf"/>
      <path id="Path_19878" data-name="Path 19878" d="M213.411,72.413v-1.87l-.25.271h-.914l-.091.124v1.476a2.026,2.026,0,0,0,2.075,2.025,1.98,1.98,0,0,0,.612-.094A2.011,2.011,0,0,1,213.411,72.413Z" transform="translate(-175.281 -67.236)" fill="#ffcebe"/>
      <path id="Path_19879" data-name="Path 19879" d="M198.354,0a2.859,2.859,0,0,0-2.795,2.874v.853a.686.686,0,0,1,.185-.026h1.13c.07,0,.464-.032.435-.03a1.194,1.194,0,0,0,1.048-.9.034.034,0,0,1,.067,0,1.192,1.192,0,0,0,1.037.9c.357.03.362.032.426.032h1.126a.687.687,0,0,1,.21.033v-.9A2.832,2.832,0,0,0,198.354,0Z" transform="translate(-159.462 0)" fill="#365e7d"/>
      <g id="Group_14654" data-name="Group 14654" transform="translate(36.097 0)">
        <path id="Path_19880" data-name="Path 19880" d="M196.826,2.874a2.874,2.874,0,0,1,2.2-2.8,2.832,2.832,0,0,0-3.467,2.8v.853a.686.686,0,0,1,.185-.026h1.082Z" transform="translate(-195.559 0)" fill="#2b4d66"/>
      </g>
      <path id="Path_19881" data-name="Path 19881" d="M290.343,223.72h-.762l-.047.05v.449a.889.889,0,0,1-.593.813,1.39,1.39,0,0,0,.284,2.152l.262.04,1.831-.709v-1.038Z" transform="translate(-248.096 -213.233)" fill="#365e7d"/>
      <path id="Path_19882" data-name="Path 19882" d="M290.207,225.033a1,1,0,0,0,.555-.556l-.419-.757h-.762l-.047.05v.449a.889.889,0,0,1-.593.813,1.389,1.389,0,0,0,.284,2.152l.262.04.7-.27A1.4,1.4,0,0,1,290.207,225.033Z" transform="translate(-248.096 -213.233)" fill="#2b4d66"/>
      <path id="Path_19883" data-name="Path 19883" d="M394.457,224.471a.889.889,0,0,1-.593-.813V223.2l-.075-.071h-.8l-.918,1.856v.94l1.89.736.176-.053A1.4,1.4,0,0,0,394.457,224.471Z" transform="translate(-346.762 -212.672)" fill="#365e7d"/>
      <path id="Path_19884" data-name="Path 19884" d="M265.6,288.727l-2.249-.871-.2.089h-3.472l-.248-.088-2.244.87a1.934,1.934,0,0,0-1.13,1.752v2.441H264.8v-1.344h1.934v-1.1A1.928,1.928,0,0,0,265.6,288.727Z" transform="translate(-217.123 -274.363)" fill="#ffd064"/>
      <path id="Path_19885" data-name="Path 19885" d="M413.646,195.427l-.063-.063h-.753v1.319l.042.086h.568a.687.687,0,0,0,.206-1.342Z" transform="translate(-366.548 -186.206)" fill="#ffcebe"/>
      <path id="Path_19886" data-name="Path 19886" d="M299.279,195.339h0a.686.686,0,0,0,.185,1.348h.593l.065-.076v-1.333h-.795Z" transform="translate(-257.841 -186.125)" fill="#ffcebe"/>
      <path id="Path_19887" data-name="Path 19887" d="M413.5,195.364h-.673v1.319l.042.086h.568c.021,0,.042,0,.063,0v-1.4Z" transform="translate(-366.548 -186.206)" fill="#ffb1a0"/>
      <path id="Path_19888" data-name="Path 19888" d="M299.451,196a.686.686,0,0,1,.5-.661h0l.049-.061h-.673l-.049.061h0a.686.686,0,0,0,.184,1.348h.593l0,0A.687.687,0,0,1,299.451,196Z" transform="translate(-257.842 -186.125)" fill="#ffb1a0"/>
      <path id="Path_19889" data-name="Path 19889" d="M442.5,366.3v1.387h1.557a.376.376,0,0,0,.376-.376V366.3Z" transform="translate(-394.824 -349.134)" fill="#ffcebe"/>
      <path id="Path_19890" data-name="Path 19890" d="M331.277,262.2a.209.209,0,0,1-.133-.194v-.7l-.092-.1H328.94l-.107.1V262c0,.16-.143.2-.2.222l-.6.234a2.06,2.06,0,0,0,3.92,0Z" transform="translate(-285.719 -248.965)" fill="#ffcebe"/>
      <path id="Path_19891" data-name="Path 19891" d="M329.989,261.209H328.94l-.107.1V262c0,.16-.143.2-.2.222l-.6.234a2.029,2.029,0,0,0,1.963,1.425Z" transform="translate(-285.719 -248.965)" fill="#ffb1a0"/>
      <path id="Path_19892" data-name="Path 19892" d="M436.267,343.77v-2.241a.322.322,0,0,0-.644,0v2.241Z" transform="translate(-388.273 -325.213)" fill="#ffc250"/>
      <path id="Path_19893" data-name="Path 19893" d="M354.52,174.436h-.9l-.709-.88h-.422l-.657.712v1.816a2.079,2.079,0,0,0,1.38,1.962,2.056,2.056,0,0,0,1.521-1.979V174.61Z" transform="translate(-308.408 -165.421)" fill="#ffdecf"/>
      <path id="Path_19894" data-name="Path 19894" d="M327.34,189.494v-1.87l-.25.271h-.914l-.091.124v1.476a2.026,2.026,0,0,0,2.075,2.025,1.98,1.98,0,0,0,.612-.094A2.011,2.011,0,0,1,327.34,189.494Z" transform="translate(-283.869 -178.829)" fill="#ffcebe"/>
      <path id="Path_19895" data-name="Path 19895" d="M312.283,117.081a2.859,2.859,0,0,0-2.795,2.874v.853a.686.686,0,0,1,.185-.026h1.13c.07,0,.464-.032.435-.03a1.194,1.194,0,0,0,1.048-.9.034.034,0,0,1,.067,0,1.192,1.192,0,0,0,1.037.9c.357.03.362.032.426.032h1.126a.687.687,0,0,1,.21.033v-.9A2.832,2.832,0,0,0,312.283,117.081Z" transform="translate(-268.05 -111.593)" fill="#365e7d"/>
      <g id="Group_14655" data-name="Group 14655" transform="translate(41.438 5.488)">
        <path id="Path_19896" data-name="Path 19896" d="M310.755,119.955a2.874,2.874,0,0,1,2.2-2.8,2.832,2.832,0,0,0-3.467,2.8v.853a.686.686,0,0,1,.185-.026h1.082Z" transform="translate(-309.488 -117.081)" fill="#2b4d66"/>
      </g>
      <path id="Path_19897" data-name="Path 19897" d="M184.642,192.257h-.163l-.074-.071h-.435v1.45l.127.067h.545a.724.724,0,0,0,0-1.446Z" transform="translate(-148.416 -183.177)" fill="#ffcebe"/>
      <path id="Path_19898" data-name="Path 19898" d="M71.928,192.257a.724.724,0,0,0,0,1.446h.545l.089-.164v-1.353h-.508Z" transform="translate(-40.973 -183.177)" fill="#ffcebe"/>
      <path id="Path_19899" data-name="Path 19899" d="M184.687,192.259l-.045,0h-.163l-.074-.071h-.435v1.45l.127.067h.545l.045,0Z" transform="translate(-148.416 -183.177)" fill="#ffb1a0"/>
      <path id="Path_19900" data-name="Path 19900" d="M71.96,192.98a.711.711,0,0,1,.6-.717v-.076h-.508l-.127.071a.724.724,0,0,0,0,1.446h.545l.011-.021A.716.716,0,0,1,71.96,192.98Z" transform="translate(-40.973 -183.177)" fill="#ffb1a0"/>
      <path id="Path_19901" data-name="Path 19901" d="M37.8,288.816l-2.221-.86-.172.082H31.759l-.155-.089-2.219.867a1.934,1.934,0,0,0-1.13,1.752v.982h1.934v1.459h8.739v-2.441A1.928,1.928,0,0,0,37.8,288.816Z" transform="translate(0 -274.452)" fill="#b3e59f"/>
      <path id="Path_19902" data-name="Path 19902" d="M29.909,299.132a1.667,1.667,0,0,1,.52-1.4l-1.045.408a1.934,1.934,0,0,0-1.13,1.752v.982h1.654C29.909,299.693,29.909,299.669,29.909,299.132Z" transform="translate(0 -283.774)" fill="#95d6a4"/>
      <path id="Path_19903" data-name="Path 19903" d="M30.189,363.857H28.256v1.125a.376.376,0,0,0,.376.376H30.19v-1.5Z" transform="translate(-0.001 -346.801)" fill="#ffb1a0"/>
      <path id="Path_19904" data-name="Path 19904" d="M102.973,261.472a.209.209,0,0,1-.133-.194v-.686l-.142-.145h-2.04l-.129.142v.688a.192.192,0,0,1-.089.169l-.742.29a2.1,2.1,0,0,0,3.973.007l-.7-.27Z" transform="translate(-68.093 -248.238)" fill="#ffcebe"/>
      <path id="Path_19905" data-name="Path 19905" d="M101.684,260.446h-1.027l-.129.142v.688a.192.192,0,0,1-.089.169l-.742.29a2.065,2.065,0,0,0,1.987,1.421Z" transform="translate(-68.093 -248.238)" fill="#ffb1a0"/>
      <path id="Path_19906" data-name="Path 19906" d="M63.276,343.77v-2.241a.322.322,0,0,0-.644,0v2.241Z" transform="translate(-32.766 -325.213)" fill="#95d6a4"/>
      <path id="Path_19907" data-name="Path 19907" d="M131.6,176.214l-.172-.115-.129-.558h-.251l-1.045.759h-.926l-.078.126v1.511a2.093,2.093,0,0,0,1.321,1.95,2.063,2.063,0,0,0,1.382-1.945v-1.494Z" transform="translate(-96.025 -167.313)" fill="#ffdecf"/>
      <g id="Group_14656" data-name="Group 14656" transform="translate(31.502 8.987)">
        <path id="Path_19908" data-name="Path 19908" d="M99.028,193.37v-1.477l.1-.165H97.624l-.1.165v1.477a2.11,2.11,0,0,0,2.849,1.926A2.046,2.046,0,0,1,99.028,193.37Z" transform="translate(-97.522 -191.728)" fill="#ffcebe"/>
      </g>
      <path id="Path_19909" data-name="Path 19909" d="M83.878,118.032a.384.384,0,0,1-.415-.3c-.064-.326-.225-.65-.856-.65H80.418a1.455,1.455,0,0,0-1.455,1.455v1.6a.612.612,0,0,0,.613.613H82.06a1.454,1.454,0,0,0,1.283-.77.039.039,0,0,1,.073.019.753.753,0,0,0,.751.751.4.4,0,0,0,.394-.394v-1.666a.652.652,0,0,0-.683-.652Z" transform="translate(-48.331 -111.592)" fill="#365e7d"/>
      <g id="Group_14657" data-name="Group 14657" transform="translate(30.632 5.488)">
        <path id="Path_19910" data-name="Path 19910" d="M80.2,120.132v-1.6a1.455,1.455,0,0,1,1.455-1.455H80.419a1.455,1.455,0,0,0-1.455,1.455v1.6a.613.613,0,0,0,.613.613h1.235A.613.613,0,0,1,80.2,120.132Z" transform="translate(-78.964 -117.081)" fill="#2b4d66"/>
      </g>
      <g id="Group_14660" data-name="Group 14660" transform="translate(33.593 11.045)">
        <path id="Path_19911" data-name="Path 19911" d="M298.515,310.811h-.163l-.074-.071h-.435v1.45l.127.067h.545a.724.724,0,0,0,0-1.446Z" transform="translate(-290.544 -307.219)" fill="#ffcebe"/>
        <path id="Path_19912" data-name="Path 19912" d="M185.8,310.811a.724.724,0,0,0,0,1.446h.545l.089-.164V310.74h-.508Z" transform="translate(-183.101 -307.219)" fill="#ffcebe"/>
        <path id="Path_19913" data-name="Path 19913" d="M298.559,310.813l-.045,0h-.163l-.074-.071h-.435v1.45l.127.067h.545l.045,0Z" transform="translate(-290.543 -307.219)" fill="#ffb1a0"/>
        <path id="Path_19914" data-name="Path 19914" d="M185.832,311.534a.711.711,0,0,1,.6-.717v-.076h-.508l-.127.071a.724.724,0,0,0,0,1.446h.545l.011-.021A.716.716,0,0,1,185.832,311.534Z" transform="translate(-183.1 -307.219)" fill="#ffb1a0"/>
        <path id="Path_19915" data-name="Path 19915" d="M151.67,407.37l-2.221-.86-.172.082H145.63l-.155-.089-2.219.867a1.934,1.934,0,0,0-1.13,1.752v.982h1.934v1.344h6.806V410.1H152.8v-.982A1.928,1.928,0,0,0,151.67,407.37Z" transform="translate(-142.127 -398.494)" fill="#80b4fb"/>
        <path id="Path_19916" data-name="Path 19916" d="M143.781,417.686a1.667,1.667,0,0,1,.521-1.4l-1.045.408a1.934,1.934,0,0,0-1.13,1.752v.982h1.654C143.781,418.247,143.781,418.223,143.781,417.686Z" transform="translate(-142.127 -407.816)" fill="#61a2f9"/>
        <path id="Path_19917" data-name="Path 19917" d="M144.062,482.411h-1.934v1.011a.376.376,0,0,0,.376.376h1.557Z" transform="translate(-142.128 -470.843)" fill="#ffb1a0"/>
        <path id="Path_19918" data-name="Path 19918" d="M328.566,482.411V483.8h1.557a.376.376,0,0,0,.376-.376v-1.011Z" transform="translate(-319.827 -470.843)" fill="#ffcebe"/>
        <path id="Path_19919" data-name="Path 19919" d="M216.844,380.026a.209.209,0,0,1-.133-.194v-.686l-.142-.145h-2.04l-.129.142v.688a.192.192,0,0,1-.089.169l-.742.29a2.1,2.1,0,0,0,3.973.007Z" transform="translate(-210.219 -372.28)" fill="#ffcebe"/>
        <path id="Path_19920" data-name="Path 19920" d="M215.556,379h-1.027l-.129.142v.688a.192.192,0,0,1-.089.169l-.743.29a2.065,2.065,0,0,0,1.987,1.421Z" transform="translate(-210.22 -372.28)" fill="#ffb1a0"/>
        <path id="Path_19921" data-name="Path 19921" d="M177.148,462.21v-2.127a.322.322,0,0,0-.644,0v2.127Z" transform="translate(-174.893 -449.255)" fill="#61a2f9"/>
        <path id="Path_19922" data-name="Path 19922" d="M322.338,462.21v-2.127a.322.322,0,0,0-.644,0v2.127Z" transform="translate(-313.277 -449.255)" fill="#61a2f9"/>
        <path id="Path_19923" data-name="Path 19923" d="M245.474,294.768l-.172-.115-.129-.558h-.251l-1.045.759h-.926l-.078.126v1.511a2.093,2.093,0,0,0,1.321,1.95,2.063,2.063,0,0,0,1.382-1.945V295Z" transform="translate(-238.152 -291.355)" fill="#ffdecf"/>
        <g id="Group_14658" data-name="Group 14658" transform="translate(3.247 3.499)">
          <path id="Path_19924" data-name="Path 19924" d="M212.9,311.924v-1.477l.1-.165H211.5l-.1.165v1.477a2.11,2.11,0,0,0,2.849,1.926A2.046,2.046,0,0,1,212.9,311.924Z" transform="translate(-211.394 -310.282)" fill="#ffcebe"/>
        </g>
        <path id="Path_19925" data-name="Path 19925" d="M197.75,236.586a.384.384,0,0,1-.415-.3c-.064-.326-.225-.65-.856-.65H194.29a1.455,1.455,0,0,0-1.455,1.455v1.6a.612.612,0,0,0,.613.613h2.484a1.454,1.454,0,0,0,1.283-.77.039.039,0,0,1,.073.019.753.753,0,0,0,.751.751.4.4,0,0,0,.394-.394v-1.666A.652.652,0,0,0,197.75,236.586Z" transform="translate(-190.458 -235.634)" fill="#365e7d"/>
        <g id="Group_14659" data-name="Group 14659" transform="translate(2.377 0)">
          <path id="Path_19926" data-name="Path 19926" d="M194.071,238.687v-1.6a1.455,1.455,0,0,1,1.455-1.455h-1.235a1.455,1.455,0,0,0-1.455,1.455v1.6a.613.613,0,0,0,.613.613h1.235A.613.613,0,0,1,194.071,238.687Z" transform="translate(-192.836 -235.636)" fill="#2b4d66"/>
        </g>
      </g>
    </g>
  </g>
</svg>
