<svg xmlns="http://www.w3.org/2000/svg" width="20.665" height="20.665" viewBox="0 0 20.665 20.665">
  <path id="expand" d="M20.665,1.292v6.76a1.292,1.292,0,1,1-2.583,0V4.41L13.273,9.218a1.292,1.292,0,1,1-1.827-1.827l4.808-4.808H12.614a1.292,1.292,0,1,1,0-2.583h6.76a1.292,1.292,0,0,1,1.292,1.292ZM0,19.373a1.292,1.292,0,0,0,1.292,1.292h6.76a1.292,1.292,0,1,0,0-2.583H4.41l4.808-4.808a1.292,1.292,0,1,0-1.827-1.827L2.583,16.255V12.614a1.292,1.292,0,1,0-2.583,0Z" transform="translate(0 0)" fill="#fff"/>
</svg>
