<svg xmlns="http://www.w3.org/2000/svg" width="48" height="48" viewBox="0 0 48 48">
  <g id="Group_16195" data-name="Group 16195" transform="translate(-10 -92)">
    <rect id="Rectangle_7962" data-name="Rectangle 7962" width="48" height="48" rx="24" transform="translate(10 92)" fill="#ffeec9"/>
    <g id="food" transform="translate(6.47 102.93)">
      <path id="Path_19839" data-name="Path 19839" d="M26.027,75.885a.395.395,0,0,0-.777-.137,9.72,9.72,0,0,0-.088,2.326L23.908,74.43a.395.395,0,1,0-.746.257l1.114,3.237-.073-.131a4.979,4.979,0,0,0-2.184-2.323.395.395,0,0,0-.283.737c.873.335,1.731,1.793,2.232,2.841l.293.745,1.911-.631-.181-.81A8.831,8.831,0,0,1,26.027,75.885Z" transform="translate(-5.927 -70.377)" fill="#77d057"/>
      <path id="Path_19840" data-name="Path 19840" d="M308.565,145.242h-4.09l-1.389,2.663a.656.656,0,0,0-.074.3v6.925a.656.656,0,0,0,.656.656h5.705a.656.656,0,0,0,.656-.656v-6.925a.655.655,0,0,0-.074-.3Z" transform="translate(-273.08 -137.826)" fill="#e9eaeb"/>
      <path id="Path_19841" data-name="Path 19841" d="M360.4,147.905l-1.389-2.663h-2.839l1.389,2.663a.656.656,0,0,1,.074.3v6.925a.656.656,0,0,1-.656.656h2.839a.656.656,0,0,0,.656-.656v-6.925A.656.656,0,0,0,360.4,147.905Z" transform="translate(-323.522 -137.826)" fill="#c8cbce"/>
      <path id="Path_19842" data-name="Path 19842" d="M316.287,128.7h-5.464a.4.4,0,0,1-.4-.4v-.583a.4.4,0,0,1,.4-.4h5.464a.4.4,0,0,1,.4.4v.583A.4.4,0,0,1,316.287,128.7Z" transform="translate(-280.116 -120.816)" fill="#fd9727"/>
      <path id="Path_19843" data-name="Path 19843" d="M379.656,127.317H377.2V128.7h2.452a.4.4,0,0,0,.4-.4v-.583A.4.4,0,0,0,379.656,127.317Z" transform="translate(-343.485 -120.816)" fill="#f9662b"/>
      <path id="Path_19844" data-name="Path 19844" d="M334.737,228.67h-3.863a.162.162,0,0,1-.162-.162v-3.863a.162.162,0,0,1,.162-.162h3.863a.162.162,0,0,1,.162.162v3.863A.162.162,0,0,1,334.737,228.67Z" transform="translate(-299.366 -213.02)" fill="#5bdcfd"/>
      <path id="Path_19845" data-name="Path 19845" d="M386.089,224.481h-1.263v4.188h1.263a.162.162,0,0,0,.162-.162v-3.863A.162.162,0,0,0,386.089,224.481Z" transform="translate(-350.718 -213.019)" fill="#48c7e5"/>
      <path id="Path_19846" data-name="Path 19846" d="M193.542,9.867V5.4h-2.288v4.47a3.2,3.2,0,0,1-.877,2.2h0a3.2,3.2,0,0,0-.877,2.2V27.241a.8.8,0,0,0,.8.8h4.188a.8.8,0,0,0,.8-.8V14.267a3.2,3.2,0,0,0-.877-2.2h0A3.2,3.2,0,0,1,193.542,9.867Z" transform="translate(-165.365 -5.122)" fill="#602952"/>
      <path id="Path_19847" data-name="Path 19847" d="M221.794,12.067h0a3.2,3.2,0,0,1-.877-2.2V5.4h-2.288v4.47a3.2,3.2,0,0,1-.281,1.31,3.2,3.2,0,0,0,.6.89h0a3.2,3.2,0,0,1,.877,2.2V27.241a.8.8,0,0,1-.8.8h2.85a.8.8,0,0,0,.8-.8V14.267A3.2,3.2,0,0,0,221.794,12.067Z" transform="translate(-192.74 -5.122)" fill="#4c1c40"/>
      <path id="Path_19848" data-name="Path 19848" d="M223.011,3.962V.136A.135.135,0,0,0,222.875,0H220.5a.135.135,0,0,0-.135.136V3.962a.135.135,0,0,0,.135.136h2.373A.136.136,0,0,0,223.011,3.962Z" transform="translate(-194.656)" fill="#fdc74f"/>
      <path id="Path_19849" data-name="Path 19849" d="M232.445,212.682h-3.4a.4.4,0,0,1-.4-.4v-5.7a.4.4,0,0,1,.4-.4h3.4Z" transform="translate(-202.514 -195.652)" fill="#e8b19c"/>
      <rect id="Rectangle_7968" data-name="Rectangle 7968" width="2.85" height="6.503" transform="translate(27.081 10.528)" fill="#d09c84"/>
      <path id="Path_19850" data-name="Path 19850" d="M50.988,174.372l-2.222-12.986a1.868,1.868,0,0,0-2.449-1.451l-2.546.876a1.868,1.868,0,0,0-1.037,2.651l6.241,11.6A1.079,1.079,0,0,0,50.988,174.372Z" transform="translate(-25.881 -151.671)" fill="#fd9727"/>
      <path id="Path_19851" data-name="Path 19851" d="M104.191,174.372l-2.222-12.986a1.868,1.868,0,0,0-2.449-1.451l-.944.325,3.6,14.8A1.079,1.079,0,0,0,104.191,174.372Z" transform="translate(-79.084 -151.671)" fill="#f9662b"/>
      <path id="Path_19852" data-name="Path 19852" d="M59.074,306.7H44.364a1.488,1.488,0,0,1-1.452-1.166l-2.185-9.88H62.711l-2.185,9.88A1.488,1.488,0,0,1,59.074,306.7Z" transform="translate(-24.188 -280.556)" fill="#fdc74f"/>
      <path id="Path_19853" data-name="Path 19853" d="M348.036,295.652l-2.184,9.88A1.488,1.488,0,0,1,344.4,306.7h2.841a1.487,1.487,0,0,0,1.452-1.166l2.185-9.88Z" transform="translate(-312.355 -280.556)" fill="#fca629"/>
      <path id="Path_19854" data-name="Path 19854" d="M39.376,290.378H15.685a.448.448,0,0,1-.448-.448v-1.113a.448.448,0,0,1,.448-.448H39.376a.448.448,0,0,1,.448.448v1.113A.448.448,0,0,1,39.376,290.378Z" transform="translate(0 -273.646)" fill="#fc502a"/>
      <path id="Path_19855" data-name="Path 19855" d="M443.349,288.37h-2.4v2.008h2.4a.448.448,0,0,0,.448-.448v-1.113A.448.448,0,0,0,443.349,288.37Z" transform="translate(-403.973 -273.646)" fill="#e60d28"/>
      <g id="Group_14651" data-name="Group 14651" transform="translate(20.839 18.512)">
        <path id="Path_19856" data-name="Path 19856" d="M207.428,367.781a.4.4,0,0,0,.393.367h.028a.4.4,0,0,0,.366-.421l-.337-4.8a.395.395,0,0,0-.787.055Z" transform="translate(-202.896 -362.561)" fill="#fff"/>
        <path id="Path_19857" data-name="Path 19857" d="M126.435,369.732a.394.394,0,0,1-.468-.3l-1.011-4.8a.395.395,0,1,1,.772-.163l1.011,4.8A.4.4,0,0,1,126.435,369.732Z" transform="translate(-124.948 -364.072)" fill="#fff"/>
        <path id="Path_19858" data-name="Path 19858" d="M291.352,367.781a.4.4,0,0,1-.393.367h-.028a.4.4,0,0,1-.366-.421l.337-4.8a.395.395,0,1,1,.787.055Z" transform="translate(-282.107 -362.561)" fill="#fff"/>
        <path id="Path_19859" data-name="Path 19859" d="M359.821,369.732a.394.394,0,0,0,.468-.3l1.011-4.8a.395.395,0,1,0-.772-.163l-1.011,4.8A.394.394,0,0,0,359.821,369.732Z" transform="translate(-347.531 -364.072)" fill="#fff"/>
      </g>
      <g id="Group_14652" data-name="Group 14652" transform="translate(17.174 11.364)">
        <path id="Path_19860" data-name="Path 19860" d="M56.34,223.321a.395.395,0,1,0-.257-.746l-2.913,1,.379.7Z" transform="translate(-53.17 -222.553)" fill="#fdc74f"/>
        <path id="Path_19861" data-name="Path 19861" d="M71.456,262.224l1.965-.639a.395.395,0,1,0-.257-.746L71,261.579l.347.645Z" transform="translate(-70.089 -258.863)" fill="#fdc74f"/>
      </g>
    </g>
  </g>
</svg>
